<?xml version="1.0" ?><svg id="Layer_1" style="enable-background:new 0 0 52 52;" version="1.1" viewBox="0 0 52 52" xml:space="preserve" xmlns="http://www.w3.org/2000/svg" xmlns:xlink="http://www.w3.org/1999/xlink"><style type="text/css">
	.st0{fill:#BDC2C5;}
	.st1{fill:#E46047;}
	.st2{fill:#D7DADC;}
	.st3{fill:#D7DADC;stroke:#D7DADC;stroke-width:2;stroke-linecap:round;stroke-linejoin:round;stroke-miterlimit:10;}
	.st4{fill:#5CA658;}
	.st5{fill:#FFD45A;}
	.st6{fill:#51B7E3;}
	.st7{fill:#565656;}
	.st8{fill:#FFFFFF;}
	.st9{fill:#757575;}
	.st10{fill:#5692C8;}
	.st11{fill:#E5BE50;}
	.st12{fill:#656565;}
	.st13{fill:#E5BE50;stroke:#E5BE50;stroke-width:2;stroke-linecap:round;stroke-linejoin:round;stroke-miterlimit:10;}
	.st14{fill:#D8AA7D;}
	.st15{fill:#C29870;}
	.st16{fill:#C3533C;}
	.st17{fill:#EAC08B;}
	.st18{fill:#53954F;}
	.st19{fill:#D3AE7E;}
	.st20{fill:none;}
	.st21{fill:#A1D7ED;}
	.st22{fill:#A76449;}
	.st23{fill:#C47455;}
	.st24{fill:#919497;}
	.st25{fill:#F04848;}
	.st26{fill:#A64734;}
	.st27{fill:#DAB44E;}
	.st28{fill:#DCDF2D;}
	.st29{opacity:0.2;fill:#FFFFFF;}
	.st30{fill:#AE8865;}
	.st31{opacity:0.3;fill:#FFFFFF;}
	.st32{fill:#A1A5A8;}
	.st33{fill:#975B42;}
	.st34{fill:#4A8646;}
	.st35{opacity:0.3;fill:#565656;}
</style><g><g><path class="st2" d="M39.5,6v36.4c0,0.6-0.5,1.1-1.1,1.1H14c-2.2,0-4-1.8-4-4V6c0-2.2-1.8-4-4-4h29.5C37.7,2,39.5,3.8,39.5,6z"/><path class="st9" d="M2,6v10.3c0,0.6,0.5,1.1,1.1,1.1H10V6c0-2.2-1.8-4-4-4h0C3.8,2,2,3.8,2,6z"/><path class="st0" d="M43.4,36.6v2.9c0,2.2-1.8,4-4,4H14.1v0h0c2.2,0,4-1.8,4-4v-2.9c0-0.6,0.5-1.1,1.1-1.1h23.1    C42.9,35.5,43.4,36,43.4,36.6z"/><g><rect class="st0" height="1.4" width="12.5" x="13.5" y="10.1"/><rect class="st0" height="1.4" width="12.5" x="13.5" y="15.3"/><rect class="st0" height="1.4" width="22.4" x="13.5" y="20.6"/><rect class="st0" height="1.4" width="22.4" x="13.5" y="25.9"/><rect class="st0" height="1.4" width="22.4" x="13.5" y="31.2"/><g><path class="st4" d="M31.9,17.9v-0.8c-1-0.1-1.8-0.5-2.6-1.1l0.8-0.9c0.6,0.5,1.2,0.8,1.8,0.9v-2c-0.8-0.2-1.4-0.4-1.7-0.7      c-0.4-0.3-0.6-0.8-0.6-1.4c0-0.6,0.2-1.1,0.6-1.5c0.4-0.4,1-0.6,1.7-0.6V9.2h0.7v0.5c0.8,0.1,1.5,0.3,2.2,0.8l-0.7,1      c-0.5-0.3-1-0.5-1.5-0.6v2h0c0.8,0.2,1.4,0.4,1.8,0.8C34.8,14,35,14.4,35,15c0,0.6-0.2,1.1-0.7,1.5c-0.4,0.4-1,0.6-1.7,0.6v0.8      H31.9z M31.2,11.1c-0.2,0.2-0.3,0.4-0.3,0.6c0,0.2,0.1,0.4,0.2,0.6c0.1,0.1,0.4,0.3,0.8,0.4v-1.8C31.6,10.9,31.4,11,31.2,11.1z       M33.4,15.7c0.2-0.2,0.3-0.4,0.3-0.6c0-0.2-0.1-0.4-0.2-0.6c-0.2-0.1-0.4-0.3-0.9-0.4V16C33,16,33.2,15.9,33.4,15.7z"/></g></g></g><path class="st9" d="M48,22.8H30.8c-1.1,0-2,0.9-2,2V48c0,1.1,0.9,2,2,2H48c1.1,0,2-0.9,2-2V24.8C50,23.7,49.1,22.8,48,22.8z"/><rect class="st21" height="5.8" width="17.2" x="30.8" y="24.8"/><path class="st2" d="M34.9,32.6h-2.5c-0.4,0-0.8,0.3-0.8,0.8v2.5c0,0.4,0.3,0.8,0.8,0.8h2.5c0.4,0,0.8-0.3,0.8-0.8v-2.5   C35.6,33,35.3,32.6,34.9,32.6z"/><path class="st2" d="M40.6,32.6h-2.5c-0.4,0-0.8,0.3-0.8,0.8v2.5c0,0.4,0.3,0.8,0.8,0.8h2.5c0.4,0,0.8-0.3,0.8-0.8v-2.5   C41.4,33,41,32.6,40.6,32.6z"/><path class="st2" d="M46.4,32.6h-2.5c-0.4,0-0.8,0.3-0.8,0.8v2.5c0,0.4,0.3,0.8,0.8,0.8h2.5c0.4,0,0.8-0.3,0.8-0.8v-2.5   C47.1,33,46.8,32.6,46.4,32.6z"/><path class="st2" d="M34.9,38.1h-2.5c-0.4,0-0.8,0.3-0.8,0.8v2.5c0,0.4,0.3,0.8,0.8,0.8h2.5c0.4,0,0.8-0.3,0.8-0.8v-2.5   C35.6,38.5,35.3,38.1,34.9,38.1z"/><path class="st2" d="M40.6,38.1h-2.5c-0.4,0-0.8,0.3-0.8,0.8v2.5c0,0.4,0.3,0.8,0.8,0.8h2.5c0.4,0,0.8-0.3,0.8-0.8v-2.5   C41.4,38.5,41,38.1,40.6,38.1z"/><path class="st2" d="M34.9,43.6h-2.5c-0.4,0-0.8,0.3-0.8,0.8v2.5c0,0.4,0.3,0.8,0.8,0.8h2.5c0.4,0,0.8-0.3,0.8-0.8v-2.5   C35.6,43.9,35.3,43.6,34.9,43.6z"/><path class="st2" d="M40.6,43.6h-2.5c-0.4,0-0.8,0.3-0.8,0.8v2.5c0,0.4,0.3,0.8,0.8,0.8h2.5c0.4,0,0.8-0.3,0.8-0.8v-2.5   C41.4,43.9,41,43.6,40.6,43.6z"/><path class="st4" d="M46.4,38.1h-2.5c-0.4,0-0.8,0.3-0.8,0.8v8c0,0.4,0.3,0.8,0.8,0.8h2.5c0.4,0,0.8-0.3,0.8-0.8v-8   C47.1,38.5,46.8,38.1,46.4,38.1z"/></g></svg>