<?xml version="1.0" ?><svg id="Icon_Set" style="enable-background:new 0 0 512 512;" version="1.1" viewBox="0 0 512 512" xml:space="preserve" xmlns="http://www.w3.org/2000/svg" xmlns:xlink="http://www.w3.org/1999/xlink"><style type="text/css">
	.st0{fill:#4C4372;}
	.st1{fill:#F0C48A;}
	.st2{fill:#D3E6F8;}
	.st3{fill:#FFFFFF;}
	.st4{fill:#E8677D;}
	.st5{fill:#FD919E;}
	.st6{fill:#7BABF1;}
	.st7{fill:#A4CFF2;}
</style><g id="Disaster_Management"><g><g><circle class="st1" cx="256" cy="256" r="207"/></g><g><g><rect class="st6" height="98.8" width="500.3" x="5.9" y="391.3"/></g><g><polygon class="st5" points="322.6,391.3 285.2,427.5 322.6,427.5 310,463.7 379.6,426.4 344.3,426.4 379.4,391.3     "/></g><g><rect class="st5" height="242.2" width="147.1" x="88.4" y="149.1"/></g><g><rect class="st4" height="242.2" width="26.6" x="208.3" y="149.1"/></g><g><path class="st3" d="M199.9,206.7h-76c-9.9,0-17.9-8-17.9-17.9l0,0c0-9.9,8-17.9,17.9-17.9h76c9.9,0,17.9,8,17.9,17.9l0,0      C217.8,198.7,209.8,206.7,199.9,206.7z"/></g><g><path class="st3" d="M199.9,259.7h-76c-9.9,0-17.9-8-17.9-17.9l0,0c0-9.9,8-17.9,17.9-17.9h76c9.9,0,17.9,8,17.9,17.9l0,0      C217.8,251.7,209.8,259.7,199.9,259.7z"/></g><g><path class="st3" d="M199.9,312.7h-76c-9.9,0-17.9-8-17.9-17.9l0,0c0-9.9,8-17.9,17.9-17.9h76c9.9,0,17.9,8,17.9,17.9l0,0      C217.8,304.7,209.8,312.7,199.9,312.7z"/></g><g><g><path class="st0" d="M427.7,50.3c-3.2,0-5.9-2.6-5.9-5.9V26.2c0-3.2,2.6-5.9,5.9-5.9c3.2,0,5.9,2.6,5.9,5.9v18.3       C433.6,47.7,431,50.3,427.7,50.3z"/></g><g><path class="st0" d="M427.7,122.9c-3.2,0-5.9-2.6-5.9-5.9V98.8c0-3.2,2.6-5.9,5.9-5.9c3.2,0,5.9,2.6,5.9,5.9V117       C433.6,120.3,431,122.9,427.7,122.9z"/></g><g><path class="st0" d="M446.9,58.3c-1.5,0-3-0.6-4.1-1.7c-2.3-2.3-2.3-6,0-8.3l12.9-12.9c2.3-2.3,6-2.3,8.3,0       c2.3,2.3,2.3,6,0,8.3l-12.9,12.9C449.9,57.7,448.4,58.3,446.9,58.3z"/></g><g><path class="st0" d="M395.6,109.6c-1.5,0-3-0.6-4.1-1.7c-2.3-2.3-2.3-6,0-8.3l12.9-12.9c2.3-2.3,6-2.3,8.3,0       c2.3,2.3,2.3,6,0,8.3l-12.9,12.9C398.6,109,397.1,109.6,395.6,109.6z"/></g><g><path class="st0" d="M473.1,77.5h-18.3c-3.2,0-5.9-2.6-5.9-5.9s2.6-5.9,5.9-5.9h18.3c3.2,0,5.9,2.6,5.9,5.9       S476.4,77.5,473.1,77.5z"/></g><g><path class="st0" d="M400.6,77.5h-18.3c-3.2,0-5.9-2.6-5.9-5.9s2.6-5.9,5.9-5.9h18.3c3.2,0,5.9,2.6,5.9,5.9       S403.8,77.5,400.6,77.5z"/></g><g><path class="st0" d="M459.8,109.6c-1.5,0-3-0.6-4.1-1.7L442.8,95c-2.3-2.3-2.3-6,0-8.3c2.3-2.3,6-2.3,8.3,0L464,99.6       c2.3,2.3,2.3,6,0,8.3C462.8,109,461.3,109.6,459.8,109.6z"/></g><g><path class="st0" d="M408.5,58.3c-1.5,0-3-0.6-4.1-1.7l-12.9-12.9c-2.3-2.3-2.3-6,0-8.3c2.3-2.3,6-2.3,8.3,0l12.9,12.9       c2.3,2.3,2.3,6,0,8.3C411.5,57.7,410,58.3,408.5,58.3z"/></g></g><g><circle class="st5" cx="427.7" cy="69.7" r="32.4"/></g><g><path class="st3" d="M126.3,81.3c-13.2,0-23.8-10.7-23.8-23.8c0-13.2,10.7-23.8,23.8-23.8c3.8,0,7.4,0.9,10.5,2.5      c6.5-8.6,16.8-14.2,28.4-14.2c17.7,0,32.4,13,35.1,29.9c0.8-0.2,1.7-0.2,2.6-0.2c8.2,0,14.8,6.6,14.8,14.8      c0,8.2-6.6,14.8-14.8,14.8H126.3z"/></g><g><path class="st0" d="M203,87.2h-76.7c-16.4,0-29.7-13.3-29.7-29.7s13.3-29.7,29.7-29.7c3,0,5.9,0.4,8.8,1.3      c7.8-8.4,18.6-13.1,30.2-13.1c18.7,0,34.7,12.3,39.8,29.8c10.5,1,18.7,9.9,18.7,20.6C223.7,77.9,214.4,87.2,203,87.2z       M126.3,39.5c-9.9,0-17.9,8.1-17.9,17.9s8.1,17.9,17.9,17.9H203c5,0,9-4,9-9c0-5.5-4.9-9.9-10.6-8.8c-1.5,0.3-3.1-0.1-4.4-1      c-1.3-0.9-2.1-2.3-2.4-3.9c-2.3-14.5-14.6-25-29.3-25c-9.4,0-18.1,4.3-23.8,11.9c-1.7,2.3-4.8,3-7.3,1.7      C131.8,40.2,129.1,39.5,126.3,39.5z"/></g><g><g><rect class="st7" height="209.6" width="147.1" x="276.5" y="181.7"/></g><g><rect class="st6" height="56.8" width="56.8" x="321.5" y="334.5"/></g><g><rect class="st6" height="209.6" width="26.6" x="396.4" y="181.7"/></g><g><g><rect class="st3" height="35.8" width="35.8" x="303.7" y="279.2"/></g><g><rect class="st3" height="35.8" width="35.8" x="360.6" y="279.2"/></g></g><g><g><rect class="st3" height="35.8" width="35.8" x="303.7" y="218.4"/></g><g><rect class="st3" height="35.8" width="35.8" x="360.6" y="218.4"/></g></g><g><path class="st0" d="M423.6,397.2H276.5c-3.2,0-5.9-2.6-5.9-5.9V181.7c0-3.2,2.6-5.9,5.9-5.9h147.1c3.2,0,5.9,2.6,5.9,5.9       v209.6C429.4,394.5,426.8,397.2,423.6,397.2z M282.3,385.4h135.4V187.6H282.3V385.4z"/></g><g><path class="st0" d="M339.4,320.8h-35.8c-3.2,0-5.9-2.6-5.9-5.9v-35.8c0-3.2,2.6-5.9,5.9-5.9h35.8c3.2,0,5.9,2.6,5.9,5.9v35.8       C345.3,318.2,342.7,320.8,339.4,320.8z M309.5,309.1h24v-24h-24V309.1z"/></g><g><path class="st0" d="M396.4,320.8h-35.8c-3.2,0-5.9-2.6-5.9-5.9v-35.8c0-3.2,2.6-5.9,5.9-5.9h35.8c3.2,0,5.9,2.6,5.9,5.9v35.8       C402.2,318.2,399.6,320.8,396.4,320.8z M366.5,309.1h24v-24h-24V309.1z"/></g><g><path class="st0" d="M378.3,397.2h-56.8c-3.2,0-5.9-2.6-5.9-5.9v-56.8c0-3.2,2.6-5.9,5.9-5.9h56.8c3.2,0,5.9,2.6,5.9,5.9v56.8       C384.2,394.5,381.6,397.2,378.3,397.2z M327.4,385.4h45.1v-45.1h-45.1V385.4z"/></g><g><g><path class="st0" d="M339.4,260h-35.8c-3.2,0-5.9-2.6-5.9-5.9v-35.8c0-3.2,2.6-5.9,5.9-5.9h35.8c3.2,0,5.9,2.6,5.9,5.9v35.8        C345.3,257.4,342.7,260,339.4,260z M309.5,248.3h24v-24h-24V248.3z"/></g><g><path class="st0" d="M396.4,260h-35.8c-3.2,0-5.9-2.6-5.9-5.9v-35.8c0-3.2,2.6-5.9,5.9-5.9h35.8c3.2,0,5.9,2.6,5.9,5.9v35.8        C402.2,257.4,399.6,260,396.4,260z M366.5,248.3h24v-24h-24V248.3z"/></g></g><g><g><path class="st2" d="M392.1,151.3h-84.2c-7.6,0-13.8,6.2-13.8,13.8v16.7h111.8v-16.7C405.9,157.5,399.7,151.3,392.1,151.3z"/></g><g><path class="st7" d="M379.2,179.6h26.6v-16.7c0-7.6-6.2-13.8-13.8-13.8h-12.9V179.6z"/></g><g><path class="st0" d="M405.9,187.6H294.1c-3.2,0-5.9-2.6-5.9-5.9v-16.7c0-10.8,8.8-19.6,19.6-19.6h84.2        c10.8,0,19.6,8.8,19.6,19.6v16.7C411.8,185,409.1,187.6,405.9,187.6z M300,175.9H400v-10.8c0-4.4-3.5-7.9-7.9-7.9h-84.2        c-4.4,0-7.9,3.5-7.9,7.9V175.9z"/></g></g></g><g><rect class="st4" height="56.8" width="56.8" x="133.5" y="334.5"/></g><g><path class="st0" d="M235.5,397.2H88.4c-3.2,0-5.9-2.6-5.9-5.9V149.1c0-3.2,2.6-5.9,5.9-5.9h147.1c3.2,0,5.9,2.6,5.9,5.9v242.2      C241.4,394.5,238.8,397.2,235.5,397.2z M94.3,385.4h135.4V155H94.3V385.4z"/></g><g><path class="st0" d="M190.3,397.2h-56.8c-3.2,0-5.9-2.6-5.9-5.9v-56.8c0-3.2,2.6-5.9,5.9-5.9h56.8c3.2,0,5.9,2.6,5.9,5.9v56.8      C196.2,394.5,193.5,397.2,190.3,397.2z M139.4,385.4h45.1v-45.1h-45.1V385.4z"/></g><g><g><path class="st5" d="M204.1,118.7h-84.2c-7.6,0-13.8,6.2-13.8,13.8v16.7h111.8v-16.7C217.9,124.9,211.7,118.7,204.1,118.7z"/></g><g><path class="st4" d="M191.2,147h26.6v-16.7c0-7.6-6.2-13.8-13.8-13.8h-12.9V147z"/></g><g><path class="st0" d="M217.9,155H106.1c-3.2,0-5.9-2.6-5.9-5.9v-16.7c0-10.8,8.8-19.6,19.6-19.6h84.2c10.8,0,19.6,8.8,19.6,19.6       v16.7C223.7,152.4,221.1,155,217.9,155z M111.9,143.3H212v-10.8c0-4.4-3.5-7.9-7.9-7.9h-84.2c-4.4,0-7.9,3.5-7.9,7.9V143.3z"/></g></g><g><path class="st0" d="M506.1,495.9H5.9c-3.2,0-5.9-2.6-5.9-5.9v-98.8c0-3.2,2.6-5.9,5.9-5.9h316.8c2.4,0,4.5,1.4,5.4,3.7      s0.4,4.8-1.4,6.4l-27,26.1h22.9c1.9,0,3.7,0.9,4.8,2.5c1.1,1.5,1.4,3.5,0.8,5.3l-7.7,22l35.7-19.1h-11.9c-2.4,0-4.5-1.4-5.4-3.6      c-0.9-2.2-0.4-4.7,1.3-6.4l35.1-35.1c1.1-1.1,2.6-1.7,4.1-1.7h126.7c3.2,0,5.9,2.6,5.9,5.9v98.8      C512,493.3,509.4,495.9,506.1,495.9z M11.7,484.2h488.5v-87.1H381.9l-23.4,23.4h21.1c2.7,0,5,1.8,5.7,4.4      c0.7,2.6-0.5,5.3-2.9,6.6l-69.6,37.3c-2.1,1.1-4.7,0.9-6.6-0.7c-1.8-1.6-2.5-4.1-1.7-6.4l9.9-28.4h-29.2c-2.4,0-4.5-1.4-5.4-3.7      s-0.4-4.8,1.4-6.4l27-26.1H11.7V484.2z"/></g><g><g><path class="st0" d="M436.6,459.8c-3.2,0-5.9-2.6-5.9-5.9c0-4.1-3.3-7.4-7.4-7.4c-4.1,0-7.4,3.3-7.4,7.4c0,3.2-2.6,5.9-5.9,5.9       c-3.2,0-5.9-2.6-5.9-5.9c0-10.6,8.6-19.1,19.1-19.1c10.6,0,19.1,8.6,19.1,19.1C442.4,457.1,439.8,459.8,436.6,459.8z"/></g><g><path class="st0" d="M469.5,459.8h-17c-3.2,0-5.9-2.6-5.9-5.9c0-3.2,2.6-5.9,5.9-5.9h17c3.2,0,5.9,2.6,5.9,5.9       C475.4,457.1,472.8,459.8,469.5,459.8z"/></g></g><g><g><path class="st0" d="M187,440c-3.2,0-5.9-2.6-5.9-5.9c0-4.1-3.3-7.4-7.4-7.4c-4.1,0-7.4,3.3-7.4,7.4c0,3.2-2.6,5.9-5.9,5.9       s-5.9-2.6-5.9-5.9c0-10.6,8.6-19.1,19.1-19.1s19.1,8.6,19.1,19.1C192.9,437.4,190.2,440,187,440z"/></g><g><path class="st0" d="M144.5,440h-17c-3.2,0-5.9-2.6-5.9-5.9c0-3.2,2.6-5.9,5.9-5.9h17c3.2,0,5.9,2.6,5.9,5.9       C150.4,437.4,147.7,440,144.5,440z"/></g></g><g><path class="st0" d="M427.7,108c-21.1,0-38.3-17.2-38.3-38.3s17.2-38.3,38.3-38.3S466,48.6,466,69.7S448.8,108,427.7,108z       M427.7,43.2c-14.6,0-26.6,11.9-26.6,26.6s11.9,26.6,26.6,26.6c14.6,0,26.6-11.9,26.6-26.6S442.4,43.2,427.7,43.2z"/></g><g><path class="st2" d="M201.6,208.6h-10.9V171h10.9c9.2,0,16.7,7.5,16.7,16.7v4.2C218.3,201.1,210.8,208.6,201.6,208.6z"/></g><g><path class="st2" d="M201.6,260.6h-10.9V223h10.9c9.2,0,16.7,7.5,16.7,16.7v4.2C218.3,253.1,210.8,260.6,201.6,260.6z"/></g><g><path class="st2" d="M201.6,312.7h-10.9V275h10.9c9.2,0,16.7,7.5,16.7,16.7v4.2C218.3,305.2,210.8,312.7,201.6,312.7z"/></g><g><path class="st0" d="M199.9,212.6h-76c-13.1,0-23.7-10.6-23.7-23.7c0-13.1,10.6-23.7,23.7-23.7h76c13.1,0,23.7,10.6,23.7,23.7      C223.7,202,213,212.6,199.9,212.6z M124,176.9c-6.6,0-12,5.4-12,12c0,6.6,5.4,12,12,12h76c6.6,0,12-5.4,12-12      c0-6.6-5.4-12-12-12H124z"/></g><g><path class="st0" d="M199.9,265.6h-76c-13.1,0-23.7-10.6-23.7-23.7c0-13.1,10.6-23.7,23.7-23.7h76c13.1,0,23.7,10.6,23.7,23.7      C223.7,254.9,213,265.6,199.9,265.6z M124,229.8c-6.6,0-12,5.4-12,12s5.4,12,12,12h76c6.6,0,12-5.4,12-12s-5.4-12-12-12H124z"/></g><g><path class="st0" d="M199.9,318.5h-76c-13.1,0-23.7-10.6-23.7-23.7c0-13.1,10.6-23.7,23.7-23.7h76c13.1,0,23.7,10.6,23.7,23.7      C223.7,307.9,213,318.5,199.9,318.5z M124,282.8c-6.6,0-12,5.4-12,12c0,6.6,5.4,12,12,12h76c6.6,0,12-5.4,12-12      c0-6.6-5.4-12-12-12H124z"/></g></g></g></g></svg>