<?xml version="1.0" ?><!DOCTYPE svg  PUBLIC '-//W3C//DTD SVG 1.1//EN'  'http://www.w3.org/Graphics/SVG/1.1/DTD/svg11.dtd'><svg enable-background="new 0 0 64 64" id="Layer_1" version="1.1" viewBox="0 0 64 64" xml:space="preserve" xmlns="http://www.w3.org/2000/svg" xmlns:xlink="http://www.w3.org/1999/xlink"><ellipse cx="32.4" cy="31.8" fill="#FFD766" rx="22.6" ry="20.5"/><path d="M35.2,52.5c-0.6,0-1-0.4-1-1s0.4-1,1-1c10.1,0,18.4-8.2,18.4-18.4c0-0.6,0.4-1,1-1s1,0.4,1,1  C55.6,43.3,46.5,52.5,35.2,52.5z" fill="#2C3E50"/><path d="M38.6,55.8c-0.3,0-0.5-0.1-0.7-0.3l-3.4-3.4c-0.4-0.4-0.4-1,0-1.4s1-0.4,1.4,0l3.4,3.4c0.4,0.4,0.4,1,0,1.4  C39.1,55.7,38.9,55.8,38.6,55.8z" fill="#2C3E50"/><path d="M35.2,52.5c-0.3,0-0.5-0.1-0.7-0.3c-0.4-0.4-0.4-1,0-1.4l3.6-3.6c0.4-0.4,1-0.4,1.4,0s0.4,1,0,1.4l-3.6,3.6  C35.7,52.4,35.5,52.5,35.2,52.5z" fill="#2C3E50"/><path d="M9.6,32.9c-0.6,0-1-0.4-1-1c0-11.2,9.1-20.4,20.4-20.4c0.6,0,1,0.4,1,1s-0.4,1-1,1  c-10.1,0-18.4,8.2-18.4,18.4C10.6,32.5,10.2,32.9,9.6,32.9z" fill="#2C3E50"/><path d="M29,13.5c-0.3,0-0.5-0.1-0.7-0.3l-3.4-3.4c-0.4-0.4-0.4-1,0-1.4s1-0.4,1.4,0l3.4,3.4c0.4,0.4,0.4,1,0,1.4  C29.5,13.5,29.2,13.5,29,13.5z" fill="#2C3E50"/><path d="M25.4,17.2c-0.3,0-0.5-0.1-0.7-0.3c-0.4-0.4-0.4-1,0-1.4l3.6-3.6c0.4-0.4,1-0.4,1.4,0s0.4,1,0,1.4l-3.6,3.6  C25.9,17.1,25.6,17.2,25.4,17.2z" fill="#2C3E50"/><path d="M31,51.1v-11c0-2.2-1.8-4-4-4H8c-2.2,0-4,1.8-4,4v11c0,2.2,1.8,4,4,4h3v5l6.3-5H27  C29.2,55.1,31,53.3,31,51.1z" fill="#3B97D3"/><path d="M11,61.1c-0.1,0-0.3,0-0.4-0.1c-0.3-0.2-0.6-0.5-0.6-0.9v-4H8c-2.8,0-5-2.2-5-5v-11c0-2.8,2.2-5,5-5h19  c2.8,0,5,2.2,5,5v11c0,2.8-2.2,5-5,5h-9.3l-6.1,4.7C11.4,61,11.2,61.1,11,61.1z M8,37.1c-1.7,0-3,1.3-3,3v11c0,1.7,1.3,3,3,3h3  c0.6,0,1,0.4,1,1V58l4.7-3.7c0.2-0.1,0.4-0.2,0.6-0.2H27c1.7,0,3-1.3,3-3v-11c0-1.7-1.3-3-3-3H8z" fill="#2C3E50"/><circle cx="18" cy="45.8" fill="#2C3E50" r="2"/><circle cx="24" cy="45.8" fill="#2C3E50" r="2"/><circle cx="11" cy="45.8" fill="#2C3E50" r="2"/><path d="M33,19.1v-11c0-2.2,1.8-4,4-4h19c2.2,0,4,1.8,4,4v11c0,2.2-1.8,4-4,4h-3v5l-6.3-5H37  C34.8,23.1,33,21.3,33,19.1z" fill="#7ABE90"/><path d="M53,29.1c-0.2,0-0.4-0.1-0.6-0.2l-6.1-4.7H37c-2.8,0-5-2.2-5-5v-11c0-2.8,2.2-5,5-5h19c2.8,0,5,2.2,5,5v11  c0,2.8-2.2,5-5,5h-2v4c0,0.4-0.2,0.7-0.6,0.9C53.3,29.1,53.1,29.1,53,29.1z M37,5.1c-1.7,0-3,1.3-3,3v11c0,1.7,1.3,3,3,3h9.7  c0.2,0,0.4,0.1,0.6,0.2L52,26v-2.9c0-0.6,0.4-1,1-1h3c1.7,0,3-1.3,3-3v-11c0-1.7-1.3-3-3-3H37z" fill="#2C3E50"/><circle cx="46" cy="13.8" fill="#2C3E50" r="2"/><circle cx="40" cy="13.8" fill="#2C3E50" r="2"/><circle cx="53" cy="13.8" fill="#2C3E50" r="2"/></svg>