<?xml version="1.0" ?><svg viewBox="0 0 512 512" xmlns="http://www.w3.org/2000/svg"><defs><style>.cls-1{fill:#ededf4;}.cls-2{fill:#b9ddfc;}.cls-3{opacity:0.15;}.cls-4{fill:#3f456b;}.cls-5{opacity:0.3;}.cls-6{fill:#fff;}.cls-7{fill:#cecedb;}.cls-8{opacity:0.2;}.cls-9{opacity:0.7;}.cls-10{fill:#f0f3f7;}.cls-11{fill:#fce4d6;}.cls-12{fill:#767c93;}.cls-13{opacity:0.1;}.cls-14{fill:#e95a6b;}.cls-15{fill:#ffd2a6;}.cls-16{fill:#f5f6f7;}.cls-17{opacity:0.5;}</style></defs><title/><g id="Colors"><g data-name="&lt;编组&gt;" id="_编组_"><path class="cls-1" d="M496,360v39a30,30,0,0,1-30,30H46a30,30,0,0,1-30-30V360Z"/><rect class="cls-1" height="7" width="480" x="16" y="353"/><path class="cls-2" d="M496,109V353H16V109A30,30,0,0,1,46,79H466A30,30,0,0,1,496,109Z"/></g><g class="cls-3"><g data-name="&lt;编组&gt;" id="_编组_2"><path class="cls-4" d="M458,326v25H274V322.53c-23.77-5.09-45.39-17.77-59.11-38.17A104.61,104.61,0,0,1,201.29,255c-2.41-8.66-3.44-17.51-2.18-25.54,2-13,17.75-20.59,29-13.15,5.08,3.35,8.13,9.12,9.85,14.81a60.79,60.79,0,0,0,3.49,9c17.85,36.93,64.78,32.62,64.78,32.62h0a70.79,70.79,0,0,1-14.19-42.64V207.92L292,206c0-1.69.06-3.38.19-5,0-.33,0-.66.07-1a71,71,0,0,1,141.42,0c0,.33.06.66.08,1,.12,1.65.18,3.31.18,5l0,2.17.05,21.91a70.65,70.65,0,0,1-11.42,38.65l.42.28S458,290.27,458,326Z"/></g></g><g class="cls-5"><path class="cls-6" d="M37.93,80C28.54,83.15,20.32,89.42,16,98l2.57,255L152,352,421.83,80Z"/></g><rect class="cls-1" height="67" width="80" x="216" y="429"/><rect class="cls-7" height="17" width="80" x="216" y="429"/><path class="cls-7" d="M20,392.54S21.25,415,48.25,415H462s29.75-1,30.75-22.46c0,0,8.25,36.46-33.25,36.46H51S11.25,429.57,20,392.54Z"/><g class="cls-8"><path class="cls-6" d="M492.16,116.46S490.91,94,463.91,94H50.16s-29.75,1-30.75,22.46c0,0-8.25-36.46,33.25-36.46h408.5S500.91,79.43,492.16,116.46Z"/></g><g class="cls-9"><rect class="cls-6" height="14" width="480" x="15" y="352"/></g><path class="cls-7" d="M239.07,389.59a17,17,0,1,0,17-17A17,17,0,0,0,239.07,389.59Z"/><g class="cls-3"><rect class="cls-4" height="14" width="480" x="15" y="337"/></g><path class="cls-10" d="M145,495.28V482.43a10.72,10.72,0,0,1,10.71-10.72H357.36a10.71,10.71,0,0,1,10.71,10.72v12.85"/><g class="cls-5"><path class="cls-4" d="M141,261.67H49a5,5,0,1,1,0-10h92a5,5,0,0,1,0,10Z"/><path class="cls-4" d="M141,238H49a5,5,0,0,1,0-10h92a5,5,0,0,1,0,10Z"/><path class="cls-4" d="M141,285.33H49a5,5,0,0,1,0-10h92a5,5,0,0,1,0,10Z"/><path class="cls-4" d="M102.21,309H49a5,5,0,0,1,0-10h53.21a5,5,0,0,1,0,10Z"/></g><g data-name="&lt;编组&gt;" id="_编组_3"><path class="cls-11" d="M410,222.07a71,71,0,1,1-141.94,0V199.92L268,198c0-1.69.06-3.38.19-5,0-.33,0-.66.07-1a71,71,0,0,1,141.42,0c0,.33.06.66.08,1,.12,1.65.18,3.31.18,5l0,2.17Z"/></g><path class="cls-12" d="M266.8,192S248,189,248,211c0,23,19,19,19,19"/><path class="cls-12" d="M411.2,230.17s18.8,3,18.8-19c0-23-19-19-19-19"/><g class="cls-13"><circle class="cls-14" cx="306" cy="234" r="13"/></g><g class="cls-13"><circle class="cls-14" cx="371" cy="234" r="13"/></g><g data-name="&lt;编组&gt;" id="_编组_4"><path class="cls-15" d="M360.5,160.5c-54,41-91.12,23.5-91.12,23.5h0a71,71,0,0,1,139.18,0h-.08S376.5,187.5,360.5,160.5Z"/></g><g class="cls-3"><path class="cls-4" d="M354.5,128.66S386,139,386,210s-47,83-47,83,72-2,72-82-56.5-82.34-56.5-82.34"/></g><g data-name="&lt;编组&gt;" id="_编组_5"><path class="cls-12" d="M177.29,247l40.16-14.9c17.85,36.93,64.78,32.62,64.78,32.62h0a70.64,70.64,0,0,0,6.34,7.36C282.19,307.14,304,325,304,325l3.67-5v32H250V314.53c-23.77-5.09-45.39-17.77-59.11-38.17A104.61,104.61,0,0,1,177.29,247Z"/><path class="cls-12" d="M434,318v34H372V320l1-.76,4.22,5.76s21.81-17.86,15.41-52.93l-2.25-1a70.67,70.67,0,0,0,8.17-10.36l.42.28S434,282.27,434,318Z"/><path class="cls-11" d="M217.45,232.1,177.29,247c-2.41-8.66-3.44-17.51-2.18-25.54,2-13,17.75-20.59,29-13.15,5.08,3.35,8.13,9.12,9.85,14.81A60.79,60.79,0,0,0,217.45,232.1Z"/><path class="cls-16" d="M327.87,292.24l0,.26L307.67,320,304,325s-21.81-17.86-15.41-52.93A70.68,70.68,0,0,0,327.87,292.24Z"/><path class="cls-16" d="M392.66,272.07c6.4,35.07-15.41,52.93-15.41,52.93L373,319.24,353.42,292.5l-1.84-.5a70.8,70.8,0,0,0,38.83-20.92Z"/><path class="cls-16" d="M373,319.24l-1,.76v32H307.67V320l20.16-27.5,0-.26a71.74,71.74,0,0,0,23.71-.24l1.84.5Z"/></g><g class="cls-8"><path class="cls-4" d="M282.9,265.57S286,308,339,308s57-43.57,57-43.57S382,293,339,293s-56.1-27.43-56.1-27.43"/></g><g class="cls-3"><path class="cls-4" d="M177.58,214.78S177,278,247,298c0,0,8,2,7,9s-9.24,6.72-14.12,4.86S163.16,287.56,177.58,214.78Z"/></g><path class="cls-10" d="M220.33,126.83C233.18,115,241,99.24,241,82c0-37-36-67-80.5-67S80,45,80,82s36,67,80.5,67a94.22,94.22,0,0,0,32.4-5.65L221,160Z"/><g class="cls-17"><path class="cls-6" d="M81,83s11-53,81-53,79,55,79,55,2-69-79-69S81,83,81,83Z"/></g><g class="cls-3"><path class="cls-4" d="M209.07,137.29l10.58,21.91-26.19-14.81c-9,2.89-19.69,4.61-32.46,4.61-81,0-81-67-81-67s11,53,81,53,79-55,79-55S241.09,117.61,209.07,137.29Z"/></g><g class="cls-17"><path class="cls-4" d="M141,213H49a5,5,0,0,1-5-5V174a5,5,0,0,1,5-5h92a5,5,0,0,1,5,5v34A5,5,0,0,1,141,213ZM54,203h82V179H54Z"/></g></g><g id="Lines"><path class="cls-4" d="M462.5,434H46a35,35,0,0,1-35-35V109A35,35,0,0,1,46,74H80a5,5,0,0,1,0,10H46a25,25,0,0,0-25,25V399a25,25,0,0,0,25,25H462.5a74.35,74.35,0,0,0,12.34-1.61A25.07,25.07,0,0,0,491,399V109a25,25,0,0,0-25-25H242.38a5,5,0,0,1,0-10H466a35,35,0,0,1,35,35V399a35.11,35.11,0,0,1-23.06,32.91,4.84,4.84,0,0,1-.65.19C476.94,432.17,468.47,434,462.5,434Zm13.73-6.79h0Z"/><path class="cls-4" d="M296,475a5,5,0,0,1-5-5V429a5,5,0,0,1,10,0v41A5,5,0,0,1,296,475Z"/><path class="cls-4" d="M216,475a5,5,0,0,1-5-5V429a5,5,0,0,1,10,0v41A5,5,0,0,1,216,475Z"/><path class="cls-4" d="M368.08,500.28a5,5,0,0,1-5-5V482.43a5.73,5.73,0,0,0-5.72-5.72H155.68a5.72,5.72,0,0,0-5.71,5.72v12.85a5,5,0,0,1-10,0V482.43a15.73,15.73,0,0,1,15.71-15.72H357.36a15.74,15.74,0,0,1,15.72,15.72v12.85A5,5,0,0,1,368.08,500.28Z"/><path class="cls-4" d="M496,357H16a5,5,0,0,1,0-10H496a5,5,0,0,1,0,10Z"/><path class="cls-4" d="M256,411.55a22,22,0,1,1,22-22A22,22,0,0,1,256,411.55Zm0-33.93a12,12,0,1,0,12,12A12,12,0,0,0,256,377.62Z"/><path class="cls-4" d="M396,501H117a5,5,0,0,1,0-10H396a5,5,0,0,1,0,10Z"/><path class="cls-4" d="M30.11,501a5,5,0,0,1-4.95-4.25,26.57,26.57,0,0,1,6.58-20.13c9-10.57,25.83-15.93,49.9-15.93,13.36,0,30.65-2.39,37.24-13.75,2.58-4.45,2.43-8.17,2.23-13.33,0-1.47-.11-3-.11-4.64a5,5,0,0,1,10,0c0,1.46.05,2.88.11,4.26.22,5.79.45,11.77-3.58,18.72-7.1,12.26-23,18.74-45.89,18.74-25.95,0-37.23,6.65-42.13,12.23-5.23,6-4.5,12.08-4.46,12.33A5,5,0,0,1,30.88,501,5.09,5.09,0,0,1,30.11,501Z"/><path class="cls-4" d="M339,298.11a76.08,76.08,0,0,1-75.95-76V200l-.06-1.84a1.09,1.09,0,0,1,0-.18,76,76,0,1,1,151.94,0l0,2.12.05,21.95A76.1,76.1,0,0,1,339,298.11Zm-66-100.2.07,1.84v22.32a66,66,0,1,0,131.94,0l-.07-24A66,66,0,1,0,273,197.91Z"/><path class="cls-4" d="M263.07,235.42a19.5,19.5,0,0,1-12-3.81C245.72,227.48,243,220.54,243,211c0-9.08,2.62-15.81,7.79-20,7.15-5.8,16.06-4.11,17-3.9a5,5,0,0,1-2,9.79c-.16,0-5.28-1-8.76,1.92-2.68,2.2-4,6.3-4,12.18,0,4.29.72,10,4.13,12.65s8.58,1.52,8.64,1.5a5,5,0,0,1,2.5,9.69A22.52,22.52,0,0,1,263.07,235.42Z"/><path class="cls-4" d="M414.35,235.44a21.73,21.73,0,0,1-4.19-.38,5,5,0,0,1,2-9.79c.16,0,5.28.95,8.76-1.93,2.68-2.2,4-6.29,4-12.17,0-4.3-.72-10-4.13-12.65s-8.58-1.52-8.64-1.51a5,5,0,0,1-2.5-9.68c.39-.1,9.78-2.49,17.2,3.23,5.35,4.13,8.07,11.06,8.07,20.61,0,9.08-2.62,15.81-7.79,20A20.29,20.29,0,0,1,414.35,235.44Z"/><path class="cls-4" d="M434,357a5,5,0,0,1-5-5V318c0-32.54-32.27-52.53-32.6-52.73a5,5,0,1,1,5.2-8.54c1.52.93,37.4,23.17,37.4,61.27v34A5,5,0,0,1,434,357Z"/><path class="cls-4" d="M304,330a5,5,0,0,1-3.17-1.13c-1-.81-24-20.16-17.16-57.7a5,5,0,1,1,9.84,1.8c-4.18,22.91,4.64,37.72,10,44.27l20.31-27.7a5,5,0,0,1,8.07,5.92L308,328a5,5,0,0,1-3.4,2A4.44,4.44,0,0,1,304,330Z"/><path class="cls-4" d="M377.25,330a4.44,4.44,0,0,1-.63,0,5,5,0,0,1-3.4-2l-23.84-32.5a5,5,0,0,1,8.07-5.92l20.33,27.72c5.35-6.52,14.17-21.25,10-44.29a5,5,0,1,1,9.83-1.8c6.86,37.54-16.17,56.89-17.15,57.7A5,5,0,0,1,377.25,330Z"/><path class="cls-4" d="M307.67,356a5,5,0,0,1-5-5V320a5,5,0,0,1,10,0v31A5,5,0,0,1,307.67,356Z"/><path class="cls-4" d="M372,356a5,5,0,0,1-5-5V320a5,5,0,0,1,10,0v31A5,5,0,0,1,372,356Z"/><path class="cls-4" d="M289,191.28c-12.39,0-20.29-2.26-21.06-2.49a5,5,0,0,1,2.85-9.58c.62.17,42,11.59,86.11-23.14a5,5,0,0,1,7.4,1.4c15.1,25.76,43.09,21.64,43.37,21.59a5,5,0,1,1,1.57,9.88c-1.34.21-31.59,4.66-50.51-21.71C331.64,187,306.07,191.28,289,191.28Z"/><path class="cls-4" d="M306,207a5,5,0,0,1-5-5v-1a5,5,0,0,1,10,0v1A5,5,0,0,1,306,207Z"/><path class="cls-4" d="M371,207a5,5,0,0,1-5-5v-1a5,5,0,0,1,10,0v1A5,5,0,0,1,371,207Z"/><path class="cls-4" d="M250,352a5,5,0,0,1-5-5V318.5c-24.71-6.2-45.29-20.07-58.26-39.35-9.63-14.33-19.75-38.24-16.57-58.46a24.09,24.09,0,0,1,14.32-18.21,23.33,23.33,0,0,1,22.38,1.66c5.38,3.56,9.49,9.62,11.88,17.53,12.74,42.19,62.52,38.12,63,38.07a5,5,0,0,1,.92,10,89.32,89.32,0,0,1-30.75-3.52c-21.72-6.49-36.51-20.89-42.77-41.62-1.19-3.94-3.51-9.23-7.82-12.08a13.19,13.19,0,0,0-12.82-.85,14.1,14.1,0,0,0-8.48,10.61c-1.71,10.85,1.19,30.81,15,51.33,12.2,18.14,32.09,30.95,56,36.07a5,5,0,0,1,3.95,4.89V347A5,5,0,0,1,250,352Z"/><path class="cls-4" d="M177.29,252a5,5,0,0,1-1.74-9.69l40.17-14.89a5,5,0,1,1,3.47,9.37L179,251.69A5,5,0,0,1,177.29,252Z"/><path class="cls-4" d="M339,327a5,5,0,0,1-5-5V293a5,5,0,0,1,10,0v29A5,5,0,0,1,339,327Z"/><path class="cls-4" d="M250,204h-.11a5,5,0,0,1-4.89-5.11,115.64,115.64,0,0,1,12.57-46.21C268.7,131.39,292,106,340,106c47.5,0,70,25.16,80.6,46.26A112.72,112.72,0,0,1,432,198a5,5,0,0,1-10,0,104.22,104.22,0,0,0-10.5-41.56C398,129.6,373.9,116,340,116c-34.49,0-59.24,13.9-73.57,41.32A106.49,106.49,0,0,0,255,199.11,5,5,0,0,1,250,204Z"/><path class="cls-4" d="M385.22,270.3a83,83,0,0,1-15.13-1.5,5,5,0,1,1,1.82-9.83c15.22,2.83,26.89,1.16,34.71-5,9-7,10.11-18,10.21-19.17v-6.1a5,5,0,1,1,10,0V235a1.93,1.93,0,0,1,0,.24c0,.66-.92,16.26-13.89,26.52C405.74,267.45,396.46,270.3,385.22,270.3Z"/><path class="cls-4" d="M160,88a5,5,0,0,1-5-5V82a5,5,0,0,1,10,0v1A5,5,0,0,1,160,88Z"/><path class="cls-4" d="M193,88a5,5,0,0,1-5-5V82a5,5,0,0,1,10,0v1A5,5,0,0,1,193,88Z"/><path class="cls-4" d="M129,88a5,5,0,0,1-5-5V82a5,5,0,0,1,10,0v1A5,5,0,0,1,129,88Z"/><path class="cls-4" d="M221,165a5,5,0,0,1-2.55-.7l-26.09-15.46A99,99,0,0,1,160.5,154C113.36,154,75,121.7,75,82s38.36-72,85.5-72S246,42.3,246,82c0,17.3-7.31,33.88-20.63,46.93l.63,31a5,5,0,0,1-5,5.1Zm-28.1-26.65a5,5,0,0,1,2.55.7l20.37,12.07-.49-24.19a5,5,0,0,1,1.61-3.78C229.23,111.8,236,97.18,236,82c0-34.19-33.87-62-75.5-62S85,47.81,85,82s33.87,62,75.5,62a89,89,0,0,0,30.68-5.34A4.88,4.88,0,0,1,192.9,138.35Z"/></g></svg>