<?xml version="1.0" ?><svg id="Security" style="enable-background:new 0 0 60 60;" version="1.1" viewBox="0 0 60 60" xml:space="preserve" xmlns="http://www.w3.org/2000/svg" xmlns:xlink="http://www.w3.org/1999/xlink"><style type="text/css">
	.st0{opacity:0.5;fill:#6D6DAA;enable-background:new    ;}
	.st1{opacity:0.5;}
	.st2{fill:#6D6DAA;}
	.st3{fill:#D4EDFF;}
	.st4{fill:#939FC6;}
	.st5{opacity:0.5;fill:#FFFFFF;enable-background:new    ;}
	.st6{opacity:0.2;fill:#2C4B75;enable-background:new    ;}
	.st7{opacity:0.75;fill:#FFFFFF;enable-background:new    ;}
	.st8{fill:#B1F1A8;}
	.st9{fill:#FFFFFF;}
	.st10{fill:#96D7FF;}
</style><title/><path class="st0" d="M8,8H6C4.9,8,4,7.1,4,6V2c0-1.1,0.9-2,2-2h2c1.1,0,2,0.9,2,2v4C10,7.1,9.1,8,8,8z M6,2v4h2l0-4H6z"/><path class="st0" d="M1,8C0.4,8,0,7.6,0,7c0,0,0,0,0,0V1c0-0.6,0.4-1,1-1s1,0.4,1,1v6C2,7.6,1.6,8,1,8C1,8,1,8,1,8z"/><path class="st0" d="M13,8c-0.6,0-1-0.4-1-1c0,0,0,0,0,0V1c0-0.6,0.4-1,1-1s1,0.4,1,1v6C14,7.6,13.6,8,13,8C13,8,13,8,13,8z"/><g class="st1"><path class="st2" d="M17,7.7c-0.6,0-1-0.4-1-1c0,0,0,0,0,0V1c0-0.6,0.4-1,1-1s1,0.4,1,1v5.7C18,7.2,17.6,7.7,17,7.7   C17,7.7,17,7.7,17,7.7z"/></g><g class="st1"><path class="st2" d="M21,6.4c-0.6,0-1-0.4-1-1c0,0,0,0,0,0V1c0-0.6,0.4-1,1-1s1,0.4,1,1v4.4C22,6,21.6,6.4,21,6.4   C21,6.4,21,6.4,21,6.4z"/></g><path class="st0" d="M32.8,7.6c-0.1,0-0.3,0-0.4-0.1C31.2,7,30,6.6,28.8,6.4c-0.5-0.1-0.8-0.5-0.8-1V2c0-1.1,0.9-2,2-2h2  c1.1,0,2,0.9,2,2v4c0,0.4-0.1,0.8-0.4,1.2C33.4,7.4,33.1,7.6,32.8,7.6z M30,4.6c0.7,0.2,1.3,0.4,2,0.6L32,2h-2V4.6z"/><path class="st0" d="M25,6c-0.6,0-1-0.4-1-1c0,0,0,0,0,0V1c0-0.6,0.4-1,1-1s1,0.4,1,1v4C26,5.6,25.6,6,25,6C25,6,25,6,25,6z"/><path class="st0" d="M44,8h-2c-1.1,0-2-0.9-2-2V2c0-1.1,0.9-2,2-2h2c1.1,0,2,0.9,2,2v4C46,7.1,45.1,8,44,8z M42,2v4h2l0-4H42z"/><path class="st0" d="M37,8c-0.6,0-1-0.4-1-1c0,0,0,0,0,0V1c0-0.6,0.4-1,1-1s1,0.4,1,1v6C38,7.6,37.6,8,37,8C37,8,37,8,37,8z"/><path class="st0" d="M56,8h-2c-1.1,0-2-0.9-2-2V2c0-1.1,0.9-2,2-2h2c1.1,0,2,0.9,2,2v4C58,7.1,57.1,8,56,8z M54,2v4h2l0-4H54z"/><path class="st0" d="M49,8c-0.6,0-1-0.4-1-1c0,0,0,0,0,0V1c0-0.6,0.4-1,1-1s1,0.4,1,1v6C50,7.6,49.6,8,49,8C49,8,49,8,49,8z"/><path class="st0" d="M8,58H6c-1.1,0-2-0.9-2-2v-4c0-1.1,0.9-2,2-2h2c1.1,0,2,0.9,2,2v4C10,57.1,9.1,58,8,58z M6,52v4h2l0-4H6z"/><path class="st0" d="M1,58c-0.6,0-1-0.4-1-1c0,0,0,0,0,0v-6c0-0.6,0.4-1,1-1s1,0.4,1,1v6C2,57.6,1.6,58,1,58C1,58,1,58,1,58z"/><path class="st0" d="M13,58c-0.6,0-1-0.4-1-1c0,0,0,0,0,0v-6c0-0.6,0.4-1,1-1s1,0.4,1,1v6C14,57.6,13.6,58,13,58C13,58,13,58,13,58z  "/><g class="st1"><path class="st2" d="M17,58c-0.6,0-1-0.4-1-1c0,0,0,0,0,0v-6c0-0.6,0.4-1,1-1s1,0.4,1,1v6C18,57.6,17.6,58,17,58C17,58,17,58,17,58   z"/></g><g class="st1"><path class="st2" d="M21,58c-0.6,0-1-0.4-1-1c0,0,0,0,0,0v-6c0-0.6,0.4-1,1-1s1,0.4,1,1v6C22,57.6,21.6,58,21,58C21,58,21,58,21,58   z"/></g><path class="st0" d="M32,58h-2c-1.1,0-2-0.9-2-2v-4c0-1.1,0.9-2,2-2h2c1.1,0,2,0.9,2,2v4C34,57.1,33.1,58,32,58z M30,52v4h2l0-4H30z  "/><path class="st0" d="M25,58c-0.6,0-1-0.4-1-1c0,0,0,0,0,0v-6c0-0.6,0.4-1,1-1s1,0.4,1,1v6C26,57.6,25.6,58,25,58C25,58,25,58,25,58z  "/><path class="st0" d="M44,58h-2c-1.1,0-2-0.9-2-2v-4c0-1.1,0.9-2,2-2h2c1.1,0,2,0.9,2,2v4C46,57.1,45.1,58,44,58z M42,52v4h2l0-4H42z  "/><path class="st0" d="M37,58c-0.6,0-1-0.4-1-1c0,0,0,0,0,0v-6c0-0.6,0.4-1,1-1s1,0.4,1,1v6C38,57.6,37.6,58,37,58C37,58,37,58,37,58z  "/><path class="st0" d="M49,58c-0.6,0-1-0.4-1-1c0,0,0,0,0,0v-2.3c0-0.6,0.4-1,1-1s1,0.4,1,1V57C50,57.6,49.6,58,49,58  C49,58,49,58,49,58z"/><path class="st0" d="M1,18c-0.6,0-1-0.4-1-1c0,0,0,0,0,0v-6c0-0.6,0.4-1,1-1s1,0.4,1,1v6C2,17.6,1.6,18,1,18C1,18,1,18,1,18z"/><path class="st0" d="M5,18c-0.6,0-1-0.4-1-1c0,0,0,0,0,0v-6c0-0.6,0.4-1,1-1s1,0.4,1,1v6C6,17.6,5.6,18,5,18C5,18,5,18,5,18z"/><g class="st1"><path class="st2" d="M9,14c-0.6,0-1-0.4-1-1c0,0,0,0,0,0v-2c0-0.6,0.4-1,1-1s1,0.4,1,1v2C10,13.6,9.6,14,9,14C9,14,9,14,9,14z"/></g><path class="st0" d="M41,14c-0.6,0-1-0.4-1-1c0,0,0,0,0,0v-2c0-0.6,0.4-1,1-1s1,0.4,1,1v2C42,13.6,41.6,14,41,14C41,14,41,14,41,14z  "/><path class="st0" d="M48,18h-2c-1.1,0-2-0.9-2-2v-4c0-1.1,0.9-2,2-2h2c1.1,0,2,0.9,2,2v4C50,17.1,49.1,18,48,18z M46,12v4h2l0-4H46z  "/><path class="st0" d="M53,18c-0.6,0-1-0.4-1-1c0,0,0,0,0,0v-6c0-0.6,0.4-1,1-1s1,0.4,1,1v6C54,17.6,53.6,18,53,18C53,18,53,18,53,18z  "/><path class="st0" d="M57,18c-0.6,0-1-0.4-1-1c0,0,0,0,0,0v-6c0-0.6,0.4-1,1-1s1,0.4,1,1v6C58,17.6,57.6,18,57,18C57,18,57,18,57,18z  "/><path class="st0" d="M4,28H2c-1.1,0-2-0.9-2-2v-4c0-1.1,0.9-2,2-2h2c1.1,0,2,0.9,2,2v4C6,27.1,5.1,28,4,28z M2,22v4h2l0-4H2z"/><path class="st0" d="M56,28h-2c-1.1,0-2-0.9-2-2v-4c0-1.1,0.9-2,2-2h2c1.1,0,2,0.9,2,2v4C58,27.1,57.1,28,56,28z M54,22v4h2l0-4H54z  "/><path class="st0" d="M49,28c-0.6,0-1-0.4-1-1c0,0,0,0,0,0v-6c0-0.6,0.4-1,1-1s1,0.4,1,1v6C50,27.6,49.6,28,49,28C49,28,49,28,49,28z  "/><path class="st0" d="M8,38H6c-1.1,0-2-0.9-2-2v-4c0-1,0.8-1.9,1.8-2c0.5,0,0.9,0.3,1,0.7c0.6,1.9,1.5,3.7,2.7,5.3  c0.3,0.4,0.2,0.9,0,1.2C9.1,37.7,8.6,38,8,38z M6,33.9L6,36h1.1C6.7,35.3,6.3,34.6,6,33.9z"/><path class="st0" d="M1,38c-0.6,0-1-0.4-1-1c0,0,0,0,0,0v-6c0-0.6,0.4-1,1-1s1,0.4,1,1v6C2,37.6,1.6,38,1,38C1,38,1,38,1,38z"/><path class="st0" d="M44,38h-2c-0.6,0-1.1-0.3-1.5-0.7c-0.3-0.4-0.3-0.9,0-1.2c1.2-1.6,2.1-3.4,2.7-5.3c0.1-0.4,0.6-0.7,1-0.7  c1,0.1,1.8,0.9,1.8,2v4C46,37.1,45.1,38,44,38z M42.9,36l1.1,0v-2.1C43.7,34.6,43.3,35.3,42.9,36L42.9,36z"/><path class="st0" d="M56,38h-2c-1.1,0-2-0.9-2-2v-4c0-1.1,0.9-2,2-2h2c1.1,0,2,0.9,2,2v4C58,37.1,57.1,38,56,38z M54,32v4h2l0-4H54z  "/><path class="st0" d="M49,38c-0.6,0-1-0.4-1-1c0,0,0,0,0,0v-6c0-0.6,0.4-1,1-1s1,0.4,1,1v6C50,37.6,49.6,38,49,38C49,38,49,38,49,38z  "/><path class="st0" d="M12,48h-2c-1.1,0-2-0.9-2-2v-4c0-1.1,0.9-2,2-2h2c1.1,0,2,0.9,2,2v4C14,47.1,13.1,48,12,48z M10,42v4h2l0-4H10z  "/><path class="st0" d="M1,48c-0.6,0-1-0.4-1-1c0,0,0,0,0,0v-6c0-0.6,0.4-1,1-1s1,0.4,1,1v6C2,47.6,1.6,48,1,48C1,48,1,48,1,48z"/><path class="st0" d="M5,48c-0.6,0-1-0.4-1-1c0,0,0,0,0,0v-6c0-0.6,0.4-1,1-1s1,0.4,1,1v6C6,47.6,5.6,48,5,48C5,48,5,48,5,48z"/><g class="st1"><path class="st2" d="M17,48c-0.6,0-1-0.4-1-1c0,0,0,0,0,0v-3.7c0-0.6,0.4-1,1-1s1,0.4,1,1V47C18,47.6,17.6,48,17,48   C17,48,17,48,17,48z"/></g><g class="st1"><path class="st2" d="M33,48c-0.6,0-1-0.4-1-1c0,0,0,0,0,0v-3.7c0-0.6,0.4-1,1-1s1,0.4,1,1V47C34,47.6,33.6,48,33,48   C33,48,33,48,33,48z"/></g><path class="st0" d="M24,48h-2c-1.1,0-2-0.9-2-2v-1.4c0-0.6,0.4-1,1-1c0.1,0,0.1,0,0.2,0c1.3,0.3,2.5,0.4,3.8,0.4c0.6,0,1,0.4,1,1  c0,0,0,0,0,0v1C26,47.1,25.1,48,24,48z M22,45.8V46l2,0C23.3,45.9,22.7,45.9,22,45.8z"/><path class="st0" d="M29,48c-0.6,0-1-0.4-1-1c0,0,0,0,0,0v-2.4c0-0.6,0.4-1,1-1s1,0.4,1,1V47C30,47.6,29.6,48,29,48  C29,48,29,48,29,48z"/><path class="st0" d="M37,48c-0.6,0-1-0.4-1-1c0,0,0,0,0,0v-6c0-0.6,0.4-1,1-1s1,0.4,1,1v6C38,47.6,37.6,48,37,48C37,48,37,48,37,48z  "/><path class="st0" d="M56,48h-2c-1.1,0-2-0.9-2-2v-4c0-1.1,0.9-2,2-2h2c1.1,0,2,0.9,2,2v4C58,47.1,57.1,48,56,48z M54,42v4h2l0-4H54z  "/><path class="st0" d="M49,44.3c-0.6,0-1-0.4-1-1c0,0,0,0,0,0V41c0-0.6,0.4-1,1-1s1,0.4,1,1v2.3C50,43.9,49.6,44.3,49,44.3  C49,44.3,49,44.3,49,44.3z"/><path class="st3" d="M41.9,41.9c0.5-0.5,1.1-0.8,1.8-1l-3.3-3.3c-0.8,1-1.8,2-2.8,2.8l3.3,3.3C41.1,43.1,41.4,42.4,41.9,41.9z"/><path class="st4" d="M52.1,57.7L41.9,47.6c-1.6-1.6-1.6-4.1,0-5.7l0,0c1.6-1.6,4.1-1.6,5.7,0c0,0,0,0,0,0l10.1,10.1  c1.6,1.6,1.6,4.1,0,5.7c0,0,0,0,0,0l0,0C56.2,59.3,53.6,59.3,52.1,57.7C52.1,57.7,52.1,57.7,52.1,57.7z"/><path class="st5" d="M41.9,41.9L41.9,41.9c1.6-1.6,4.1-1.6,5.7,0c0,0,0,0,0,0l10.1,10.1c1.6,1.6,1.6,4.1,0,5.7c0,0,0,0,0,0l0,0  L41.9,41.9z"/><path class="st6" d="M57.7,52.1l-2-2c1.6,1.6,1.6,4.1,0,5.7s-4.1,1.6-5.7,0c0,0,0,0,0,0l2,2c1.6,1.6,4.1,1.6,5.7,0  S59.3,53.7,57.7,52.1C57.7,52.1,57.7,52.1,57.7,52.1z"/><path class="st5" d="M43.9,43.9c1.6-1.6,4.1-1.6,5.7,0l-2-2c-1.6-1.6-4.1-1.6-5.7,0s-1.6,4.1,0,5.7l2,2C42.4,48,42.4,45.5,43.9,43.9  C43.9,43.9,43.9,43.9,43.9,43.9z"/><path class="st2" d="M40.9,44.7c-0.3,0-0.5-0.1-0.7-0.3l-3.3-3.3c-0.4-0.4-0.4-1,0-1.4c0,0,0,0,0.1-0.1c1-0.8,1.9-1.7,2.7-2.7  c0.2-0.2,0.4-0.4,0.7-0.4c0.3,0,0.6,0.1,0.8,0.3l3.3,3.3c0.4,0.4,0.4,1,0,1.4c-0.1,0.1-0.3,0.2-0.5,0.3c-1,0.3-1.9,1.1-2.1,2.1  c-0.1,0.3-0.4,0.6-0.7,0.7C41.1,44.7,41,44.7,40.9,44.7z M39.1,40.5l1.5,1.5c0.4-0.6,0.8-1,1.4-1.4l-1.5-1.5  C40.1,39.6,39.6,40.1,39.1,40.5z"/><path class="st2" d="M54.9,59.9c-1.3,0-2.6-0.5-3.5-1.5L41.2,48.3c-2-2-1.9-5.1,0-7.1c2-1.9,5.1-1.9,7.1,0l10.1,10.1  c2,2,2,5.1,0,7.1C57.5,59.4,56.2,59.9,54.9,59.9z M44.8,41.8c-1.7,0-3,1.3-3,3c0,0.8,0.3,1.6,0.9,2.1L52.8,57l0,0  c1.2,1.1,3.1,1.1,4.2,0c1.2-1.2,1.2-3.1,0-4.2c0,0,0,0,0,0L46.9,42.6C46.3,42.1,45.6,41.8,44.8,41.8z"/><circle class="st3" cx="25" cy="25" r="20"/><path class="st6" d="M25,42C14.5,42,5.9,33.9,5.1,23.5C5,24,5,24.5,5,25c0,11,9,20,20,20s20-9,20-20c0-0.5,0-1-0.1-1.5  C44.1,33.9,35.5,42,25,42z"/><path class="st7" d="M25,8c10.5,0,19.1,8.1,19.9,18.5c0-0.5,0.1-1,0.1-1.5c0-11-9-20-20-20S5,14,5,25c0,0.5,0,1,0.1,1.5  C5.9,16.1,14.5,8,25,8z"/><path class="st2" d="M25,46C13.4,46,4,36.6,4,25S13.4,4,25,4s21,9.4,21,21C46,36.6,36.6,46,25,46z M25,6C14.5,6,6,14.5,6,25  s8.5,19,19,19s19-8.5,19-19C44,14.5,35.5,6,25,6z"/><circle class="st8" cx="25" cy="25" r="16"/><path class="st6" d="M25,12c8.3,0,15.2,6.3,15.9,14.5c0-0.5,0.1-1,0.1-1.5c0-8.8-7.2-16-16-16S9,16.2,9,25c0,0.5,0,1,0.1,1.5  C9.8,18.3,16.7,12,25,12z"/><path class="st5" d="M25,9C16.2,9,9,16.1,9,25c0,3.4,1.1,6.7,3.1,9.5l22.3-22.3C31.7,10.1,28.4,9,25,9z"/><path class="st5" d="M16.5,38.5l22-22c-0.5-0.9-1.2-1.7-1.8-2.4L14.1,36.7C14.8,37.4,15.6,38,16.5,38.5z"/><path class="st2" d="M25,42c-9.4,0-17-7.6-17-17S15.6,8,25,8s17,7.6,17,17C42,34.4,34.4,42,25,42z M25,10c-8.3,0-15,6.7-15,15  s6.7,15,15,15s15-6.7,15-15C40,16.7,33.3,10,25,10z"/><path class="st6" d="M35.9,26.6c-1.3-2.8-5.3-7.1-10.9-7.1s-9.6,4.4-10.9,7.1c-0.1,0.3-0.1,0.6,0,0.8c1.3,2.8,5.3,7.1,10.9,7.1  s9.6-4.4,10.9-7.1C36,27.2,36,26.8,35.9,26.6z"/><path class="st9" d="M25,18.4c-5.3,0-9,4.3-10,6.6c1,2.2,4.7,6.6,10,6.6s9-4.3,10-6.6C34,22.8,30.3,18.4,25,18.4z"/><path class="st6" d="M25,28.6c-4.2,0-7.5-2.8-9.1-5.1c-0.3,0.5-0.6,1-0.9,1.5c1,2.2,4.7,6.6,10,6.6s9-4.3,10-6.6  c-0.3-0.5-0.6-1-0.9-1.5C32.5,25.8,29.2,28.6,25,28.6z"/><circle class="st10" cx="25" cy="25" r="3"/><path class="st2" d="M25,32.6c-5.6,0-9.6-4.4-10.9-7.1c-0.1-0.3-0.1-0.6,0-0.8c1.3-2.8,5.3-7.1,10.9-7.1s9.6,4.4,10.9,7.1  c0.1,0.3,0.1,0.6,0,0.8C34.6,28.2,30.6,32.6,25,32.6z M16.1,25c1.1,2.1,4.4,5.6,8.9,5.6s7.7-3.5,8.9-5.6c-1.1-2.1-4.4-5.6-8.9-5.6  S17.3,22.9,16.1,25z"/><path class="st2" d="M25,29c-2.2,0-4-1.8-4-4s1.8-4,4-4c0.6,0,1.1,0.1,1.7,0.4c0.5,0.2,0.7,0.8,0.5,1.3c-0.2,0.5-0.8,0.7-1.3,0.5  c0,0,0,0,0,0C25.6,23.1,25.3,23,25,23c-1.1,0-2,0.9-2,2s0.9,2,2,2s2-0.9,2-2c0-0.6,0.4-1,1-1s1,0.4,1,1C29,27.2,27.2,29,25,29z"/></svg>