<?xml version="1.0" ?><svg id="Layer_1" style="enable-background:new 0 0 128 128;" version="1.1" viewBox="0 0 128 128" xml:space="preserve" xmlns="http://www.w3.org/2000/svg" xmlns:xlink="http://www.w3.org/1999/xlink"><style type="text/css">
	.st0{fill:#F37C5A;}
	.st1{fill:#FFFFFF;}
	.st2{fill:#FDDA7F;}
	.st3{fill:#25313B;}
	.st4{fill:#474F59;}
	.st5{fill:#7DCEDC;}
	.st6{fill:#DB674C;}
</style><g><g><g><path class="st0" d="M123.7,65.8c0,32.9-26.7,59.7-59.7,59.7c-32.9,0-59.7-26.7-59.7-59.7C4.3,32.8,31.1,6,64,6     C96.9,6,123.7,32.7,123.7,65.8z"/></g><g><path class="st1" d="M21.1,81.8h10.2l0.6,21.7h19.6l0.1,20.7c16.2,3.9,33.5,0.3,45.4-7.5l-2.7-21.7l11-34     c4.6-14.2,0.1-29.8-11.9-39.2c-3.3-2.6-7-4.7-11.1-6.1c-4.1-1.4-8.5-2.2-13.1-2.2c-22,0-39.4,17.8-38.7,39.2l0.1,4.4L21.1,81.8z"/></g><g><path class="st2" d="M54,59h20c0.5-5.9,2.8-11.6,6.9-15.9c3.9-4.2,6.4-9.8,6.4-16.1C87.3,13.8,76.1,3,62.6,3.9     C51,4.6,41.6,14,40.8,25.5c-0.5,6.7,1.9,12.8,6,17.3C50.9,47.4,53.5,53,54,59z"/></g><g><path class="st3" d="M54.4,71.5c1.9,3.4,5.5,5.7,9.6,5.7c4.1,0,7.7-2.2,9.6-5.7H54.4z"/></g><g><path class="st1" d="M76.2,32.6c0-1.3-1-2.3-2.3-2.3c-1.1,0-2.1,0.8-2.2,1.9H68L65.7,21l-3.4,16.3l-0.9-5.3h-5     c-0.2-1-1.1-1.9-2.2-1.9c-1.3,0-2.3,1-2.3,2.3c0,1.3,1,2.3,2.3,2.3L58.9,60h10.5l4.8-25.1C75.2,35,76.2,33.9,76.2,32.6z      M52.7,32.6c0-0.7,0.7-1.4,1.4-1.4s1.4,0.7,1.4,1.4c0,0.7-0.5,1.2-1.2,1.4c-0.1,0-0.1,0-0.2,0C53.4,34,52.7,33.5,52.7,32.6z      M68.4,59.1h-8.9l-4.6-24.4c0.7-0.3,1.2-0.9,1.4-1.7h4.3l1.6,9.3l3.5-16.8l1.5,7.4h4.4c0.2,0.7,0.7,1.4,1.4,1.7L68.4,59.1z      M73.6,34c-0.7-0.1-1.1-0.7-1.1-1.4s0.7-1.4,1.4-1.4s1.4,0.7,1.4,1.4C75.3,33.6,74.5,34.2,73.6,34z"/></g><g><path class="st4" d="M74.5,58.4H53.5c-0.9,0-1.7,0.7-1.7,1.7v11.3c0,0.9,0.7,1.7,1.7,1.7h20.8c0.9,0,1.7-0.7,1.7-1.7V60.1     C76.1,59.1,75.3,58.4,74.5,58.4z"/></g><g><g><path class="st3" d="M51.9,62.2h24.3c0.6,0,0.9-0.4,0.9-0.9s-0.4-0.9-0.9-0.9H51.9c-0.6,0-0.9,0.4-0.9,0.9S51.4,62.2,51.9,62.2z      "/></g><g><path class="st3" d="M76.1,64.8H51.9c-0.6,0-0.9,0.4-0.9,0.9s0.4,0.9,0.9,0.9h24.3c0.6,0,0.9-0.4,0.9-0.9S76.6,64.8,76.1,64.8z"/></g><g><path class="st3" d="M76.1,69.2H51.9c-0.6,0-0.9,0.4-0.9,0.9s0.4,0.9,0.9,0.9h24.3c0.6,0,0.9-0.4,0.9-0.9S76.6,69.2,76.1,69.2z"/></g></g><g><path class="st5" d="M88.5,96.1H65.5c-1.5,0-2.7,1.2-2.7,2.7v26.5c0,1.5,1.2,2.7,2.7,2.7h23.1c1.5,0,2.7-1.2,2.7-2.7V98.8     C91.3,97.3,90,96.1,88.5,96.1z"/></g><g><path class="st6" d="M71,93.2h-2.1c-0.9,0-1.7,0.7-1.7,1.7v1.2h5.6v-1.2C72.7,93.9,71.9,93.2,71,93.2z"/></g><g><path class="st6" d="M77.1,94.1h-1.5c-0.7,0-1.1,0.6-1.1,1.1v0.8h3.7v-0.8C78.2,94.7,77.7,94.1,77.1,94.1z"/></g><g><path class="st3" d="M66.9,83.9c-1.1,0-2-0.9-2-2v-4.9h-1.9v4.9c0,2.1,1.8,3.8,3.8,3.8c1.1,0,2,0.9,2,2v5.4h1.9v-5.4     C70.8,85.6,69,83.9,66.9,83.9z"/></g><g><rect class="st4" height="2.5" width="28.4" x="62.8" y="101"/></g><g><rect class="st4" height="0.8" width="28.4" x="62.8" y="120.3"/></g><g><g><path class="st1" d="M77.7,106.4v4.9h4.8v1.3h-4.8v4.9h-1.3v-4.9h-4.8v-1.3h4.8v-4.9H77.7z"/></g></g><g><g><path class="st3" d="M77.1,94.1h-1.4V83.8c0-1.5-1.2-2.6-2.6-2.6H64v-1.4h9.1c2.2,0,4,1.8,4,4V94.1z"/></g></g><g><g><rect class="st4" height="4.9" transform="matrix(0.866 -0.5 0.5 0.866 5.4163 25.1801)" width="1.4" x="49" y="0.1"/></g><g><g><rect class="st4" height="4.9" transform="matrix(0.7071 -0.7071 0.7071 0.7071 7.9032 32.9851)" width="1.4" x="43.1" y="4.5"/></g><g><rect class="st4" height="4.9" transform="matrix(0.7071 -0.7071 0.7071 0.7071 -8.887 73.4618)" width="1.4" x="83.5" y="45"/></g></g><g><g><rect class="st4" height="4.9" transform="matrix(0.5 -0.866 0.866 0.5 8.4249 40.4521)" width="1.4" x="38.5" y="10.5"/></g><g><rect class="st4" height="4.9" transform="matrix(0.5 -0.866 0.866 0.5 8.4517 97.6052)" width="1.4" x="88.1" y="39.1"/></g></g><g><g><rect class="st4" height="4.9" transform="matrix(0.2588 -0.9659 0.9659 0.2588 7.8957 49.8303)" width="1.4" x="35.7" y="17.3"/></g><g><rect class="st4" height="4.9" transform="matrix(0.2588 -0.9659 0.9659 0.2588 34.4189 114.1371)" width="1.4" x="90.9" y="32.2"/></g></g><g><g><rect class="st4" height="1.4" width="4.9" x="33" y="26.5"/></g><g><rect class="st4" height="1.4" width="4.9" x="90.2" y="26.5"/></g></g><g><g><rect class="st4" height="1.4" transform="matrix(0.9659 -0.2588 0.2588 0.9659 -7.7219 10.5948)" width="4.9" x="34" y="33.9"/></g><g><rect class="st4" height="1.4" transform="matrix(0.9659 -0.2588 0.2588 0.9659 -1.9994 24.3856)" width="4.9" x="89.2" y="19.1"/></g></g><g><g><rect class="st4" height="1.4" transform="matrix(0.866 -0.5 0.5 0.866 -15.4932 25.2009)" width="4.9" x="36.9" y="40.8"/></g><g><rect class="st4" height="1.4" transform="matrix(0.866 -0.5 0.5 0.866 5.4713 46.1238)" width="4.9" x="86.4" y="12.2"/></g></g><g><g><rect class="st4" height="1.4" transform="matrix(0.7071 -0.7071 0.7071 0.7071 -20.6642 44.8557)" width="4.9" x="41.4" y="46.7"/></g><g><rect class="st4" height="1.4" transform="matrix(0.7071 -0.7071 0.7071 0.7071 19.7465 61.6185)" width="4.9" x="81.8" y="6.3"/></g></g><g><rect class="st4" height="1.4" transform="matrix(0.5 -0.866 0.866 0.5 37.0148 69.0152)" width="4.9" x="75.9" y="1.8"/></g></g></g></g></svg>