<?xml version="1.0" ?><!DOCTYPE svg  PUBLIC '-//W3C//DTD SVG 1.1//EN'  'http://www.w3.org/Graphics/SVG/1.1/DTD/svg11.dtd'><svg enable-background="new 0 0 32 32" height="32px" id="Layer_1" version="1.1" viewBox="0 0 32 32" width="32px" xml:space="preserve" xmlns="http://www.w3.org/2000/svg" xmlns:xlink="http://www.w3.org/1999/xlink"><g id="digital_marketing"><g id="security"><g><g><g><g><path d="M12.5,26.5h-11c0,1.104,0.896,2,2,2h25c1.104,0,2-0.896,2-2h-11H12.5z" fill="#78909C"/></g><g><path d="M28.5,29h-25C2.121,29,1,27.879,1,26.5C1,26.224,1.224,26,1.5,26h11c0.276,0,0.5,0.224,0.5,0.5        S12.776,27,12.5,27H2.086c0.206,0.582,0.762,1,1.414,1h25c0.652,0,1.208-0.418,1.414-1H19.5c-0.276,0-0.5-0.224-0.5-0.5        s0.224-0.5,0.5-0.5h11c0.276,0,0.5,0.224,0.5,0.5C31,27.879,29.879,29,28.5,29z" fill="#455A64"/></g></g><g><g><path d="M28.5,25V8.5c0-0.553-0.447-1-1-1h-23c-0.553,0-1,0.447-1,1V25H28.5z" fill="#ECEFF1"/></g></g><g><g><g><path d="M3.5,25C3.224,25,3,24.776,3,24.5v-16C3,7.673,3.673,7,4.5,7h11C15.776,7,16,7.224,16,7.5         S15.776,8,15.5,8h-11C4.225,8,4,8.224,4,8.5v16C4,24.776,3.776,25,3.5,25z" fill="#455A64"/></g><g><path d="M28.5,25c-0.276,0-0.5-0.224-0.5-0.5v-16C28,8.224,27.775,8,27.5,8h-4C23.224,8,23,7.776,23,7.5         S23.224,7,23.5,7h4C28.327,7,29,7.673,29,8.5v16C29,24.776,28.776,25,28.5,25z" fill="#455A64"/></g></g></g><g><g><rect fill="#A9E4FF" height="16" width="22" x="5" y="9"/></g></g></g></g></g><g><g><g><circle cx="22.094" cy="12.742" fill="#FFAFA9" r="1.999"/><path d="M22.092,15.242c-1.214,0-2.249-0.869-2.459-2.066c-0.117-0.656,0.029-1.319,0.412-1.867      c0.384-0.548,0.957-0.914,1.614-1.029c1.388-0.245,2.66,0.69,2.896,2.029c0.117,0.656-0.029,1.319-0.412,1.866      c-0.383,0.548-0.956,0.914-1.614,1.029C22.382,15.229,22.235,15.242,22.092,15.242z M22.095,11.241      c-0.086,0-0.174,0.008-0.262,0.023c-0.395,0.069-0.738,0.289-0.968,0.618c-0.23,0.328-0.318,0.726-0.248,1.12      c0.143,0.805,0.914,1.365,1.737,1.217c0.395-0.069,0.738-0.289,0.969-0.617c0.229-0.328,0.317-0.726,0.247-1.119      C23.443,11.763,22.823,11.241,22.095,11.241z" fill="#455A64"/></g></g><g><g><path d="M13.939,22.045L12.773,22.5c-0.207,0.08-0.453-0.018-0.547-0.22l-2.301-6.784l2.467-0.434l1.771,6.461      C14.248,21.73,14.146,21.965,13.939,22.045z" fill="#ECEFF1"/><path d="M12.622,23.028c-0.364,0-0.697-0.211-0.849-0.538l-2.509-7.386l3.489-0.613l1.893,6.9      c0.072,0.169,0.069,0.416-0.026,0.639c-0.097,0.223-0.274,0.394-0.5,0.481l-1.165,0.454      C12.848,23.007,12.736,23.028,12.622,23.028z M10.587,15.888l2.075,6.119l1.008-0.394l-1.64-5.979L10.587,15.888z" fill="#455A64"/></g><g><path d="M19.451,7.643c-1.33,1.371-2.84,2.764-5.348,3.413c-0.24,0.067-0.592,0.149-0.859,0.198l1.066,6.059      l0.08-0.016c2.381-0.419,5.354,0.473,6.986,1.262l1.645,0.999L20.656,6.142L19.451,7.643z" fill="#F2F4F5"/></g><path d="M21.346,18.384c-1.721-0.832-3.615-1.624-6.193-1.377c-0.209,0.016-0.486,0.05-0.732,0.087l-0.26-1.478     c0.244-0.036,0.523-0.071,0.732-0.087c2.578-0.248,5.318-0.24,7.664,1.391l0.436,2.463L21.346,18.384z" fill="#CFD8DC"/><path d="M19.451,7.643c-1.33,1.371-2.84,2.764-5.348,3.413c-0.201,0.056-0.475,0.12-0.719,0.169l0.262,1.478     c0.242-0.05,0.516-0.113,0.717-0.169c2.508-0.65,5.08-1.594,6.727-3.93l-0.434-2.462L19.451,7.643z" fill="#FFFFFF"/><g><path d="M13.201,11.263L8.77,12.045c-0.807,0.143-1.357,0.934-1.217,1.736l0.508,2.881      c0.143,0.799,0.963,1.377,1.758,1.238l4.436-0.783L13.201,11.263z" fill="#FF8A80"/></g><path d="M9.543,16.426l4.432-0.781l-0.758-4.383l0.004-0.002l1.014,5.861l-4.432,0.782     c-0.807,0.142-1.596-0.413-1.736-1.216L7.805,15.21C7.947,16.014,8.736,16.568,9.543,16.426z" fill="#E67C73"/><path d="M9.031,13.521l4.432-0.781l0.787,4.378l0.004-0.001l-1.053-5.854L8.77,12.045     c-0.807,0.143-1.357,0.934-1.217,1.736l0.262,1.477C7.672,14.455,8.223,13.664,9.031,13.521z" fill="#FFAFA9"/><g><path d="M13.2,11.763c-0.237,0-0.448-0.17-0.491-0.413c-0.048-0.272,0.134-0.531,0.405-0.579      c2.538-0.448,3.845-1.634,4.896-2.587c0.2-0.182,0.393-0.356,0.581-0.516c0.211-0.177,0.525-0.152,0.705,0.058      c0.178,0.211,0.152,0.526-0.059,0.705c-0.181,0.153-0.364,0.319-0.556,0.494c-1.146,1.04-2.571,2.333-5.394,2.831      C13.259,11.76,13.229,11.763,13.2,11.763z" fill="#455A64"/></g><g><path d="M22.73,19.729c-0.127,0-0.255-0.048-0.352-0.144c-0.118-0.116-2.939-2.819-8.048-1.921l-4.432,0.781      c-0.512,0.091-1.052-0.033-1.487-0.339c-0.444-0.31-0.739-0.766-0.83-1.283l-0.521-2.955c-0.188-1.068,0.563-2.13,1.638-2.319      l2.447-0.432c0.268-0.05,0.531,0.133,0.579,0.405c0.048,0.272-0.134,0.531-0.405,0.579l-2.447,0.432      c-0.542,0.096-0.92,0.627-0.827,1.162l0.521,2.955c0.044,0.25,0.196,0.483,0.418,0.638s0.49,0.216,0.741,0.174l4.432-0.781      c5.652-0.998,8.795,2.065,8.927,2.195c0.194,0.195,0.195,0.511,0.001,0.706C22.987,19.68,22.858,19.729,22.73,19.729z" fill="#455A64"/></g><rect fill="#455A64" height="5.999" transform="matrix(0.9849 -0.1729 0.1729 0.9849 -2.252 2.5876)" width="0.999" x="13.223" y="11.218"/><g><path d="M20.387,5.935l2.43,13.787L20.387,5.935z" fill="#FFF176"/><path d="M22.815,20.222c-0.237,0-0.448-0.171-0.491-0.413l-2.43-13.787C19.847,5.75,20.028,5.49,20.3,5.442      c0.267-0.049,0.531,0.133,0.579,0.405l2.43,13.787c0.048,0.272-0.134,0.531-0.405,0.579      C22.874,20.22,22.845,20.222,22.815,20.222z" fill="#455A64"/></g></g></g></g></svg>