<?xml version="1.0" ?><!DOCTYPE svg  PUBLIC '-//W3C//DTD SVG 1.1//EN'  'http://www.w3.org/Graphics/SVG/1.1/DTD/svg11.dtd'><svg enable-background="new 0 0 128 128" id="Layer_1" version="1.1" viewBox="0 0 128 128" xml:space="preserve" xmlns="http://www.w3.org/2000/svg" xmlns:xlink="http://www.w3.org/1999/xlink"><polygon fill="#FFFFFF" points="118.5,106 37.4,106 23,33 104.1,33 "/><polygon fill="#E5F2F9" points="93,77.7 52.9,77.7 49.9,66 91,66 "/><line fill="none" stroke="#B0D6EC" stroke-linecap="round" stroke-miterlimit="10" stroke-width="2" x1="57.5" x2="47.5" y1="99" y2="54.3"/><line fill="none" stroke="#B0D6EC" stroke-linecap="round" stroke-miterlimit="10" stroke-width="2" x1="71" x2="61" y1="99" y2="54.3"/><line fill="none" stroke="#B0D6EC" stroke-linecap="round" stroke-miterlimit="10" stroke-width="2" x1="84.5" x2="74.5" y1="99" y2="54.3"/><line fill="none" stroke="#B0D6EC" stroke-linecap="round" stroke-miterlimit="10" stroke-width="2" x1="98" x2="88" y1="99" y2="54.3"/><polygon fill="#F3B0AE" points="104.1,33 23,33 26.5,51 107.5,51 "/><polyline fill="#D8E3EA" points="39,106 7.4,106 23.2,32.9 "/><polygon fill="none" points="  118.5,106 37.4,106 23,33 104.1,33 " stroke="#4A7DA7" stroke-linecap="round" stroke-linejoin="round" stroke-miterlimit="10" stroke-width="4"/><polyline fill="none" points="  26,106 7.4,106 22.7,32.9 " stroke="#4A7DA7" stroke-linecap="round" stroke-linejoin="round" stroke-miterlimit="10" stroke-width="4"/><line fill="none" stroke="#B0D6EC" stroke-linecap="round" stroke-miterlimit="10" stroke-width="2" x1="39" x2="101" y1="66" y2="66"/><line fill="none" stroke="#B0D6EC" stroke-linecap="round" stroke-miterlimit="10" stroke-width="2" x1="41" x2="103" y1="78" y2="78"/><line fill="none" stroke="#B0D6EC" stroke-linecap="round" stroke-miterlimit="10" stroke-width="2" x1="44" x2="106" y1="90" y2="90"/><path d="M37.3,33.7  c-0.5-3.7,0.9-6.9,3.2-7.3c2.3-0.3,4.6,2.4,5.1,6.1c0.5,3.7-0.9,6.9-3.2,7.3" fill="none" stroke="#4A7DA7" stroke-linecap="round" stroke-miterlimit="10" stroke-width="2"/><path d="M59.9,33.7  c-0.5-3.7,0.9-6.9,3.2-7.3s4.6,2.4,5.1,6.1s-0.9,6.9-3.2,7.3" fill="none" stroke="#4A7DA7" stroke-linecap="round" stroke-miterlimit="10" stroke-width="2"/><path d="M82.6,33.7  c-0.5-3.7,0.9-6.9,3.2-7.3s4.6,2.4,5.1,6.1c0.5,3.7-0.9,6.9-3.2,7.3" fill="none" stroke="#4A7DA7" stroke-linecap="round" stroke-miterlimit="10" stroke-width="2"/><polyline fill="none" points="82.4,71.2   86.7,74.8 90.4,66 " stroke="#4A7DA7" stroke-linecap="round" stroke-miterlimit="10" stroke-width="2"/></svg>