<?xml version="1.0" ?><svg viewBox="0 0 512 512" xmlns="http://www.w3.org/2000/svg"><defs><style>.cls-1{fill:#57b584;}.cls-2{fill:#4aa071;}.cls-3{fill:#5dc691;}.cls-4{fill:#1f3f66;}.cls-5{fill:#234575;}.cls-6{fill:#27498c;}.cls-7{fill:#1c3b54;}.cls-8{fill:#e5e1dc;}.cls-9{fill:#b59191;}.cls-10{fill:#c69e9e;}.cls-11{fill:#e2b5b3;}.cls-12{fill:#f2c1bd;}.cls-13{fill:#336baf;}.cls-14{fill:#2b6299;}.cls-15{fill:#205682;}.cls-16{fill:#66d9a3;}</style></defs><title/><g data-name="FILLED OUTLINE" id="FILLED_OUTLINE"><path class="cls-1" d="M231.44043,203.03247l-22.00024-82.042a15.99929,15.99929,0,0,0-11.73731-11.41821L109.20923,88.438a16.00016,16.00016,0,0,0-14.721,3.94751l-66.04639,62.575a15.99954,15.99954,0,0,0-4.4497,15.759l22,82.04224a16.00043,16.00043,0,0,0,11.7373,11.41821l88.49365,21.13428a16.00064,16.00064,0,0,0,14.7212-3.94751l66.04638-62.5752A16.00063,16.00063,0,0,0,231.44043,203.03247Z"/><path class="cls-2" d="M231.44043,203.03247l-22.00024-82.042a15.983,15.983,0,0,0-4.70313-7.69409l-70.70435,67.55346a15.98426,15.98426,0,0,1-7.18652,3.94019l26.9585,100.48144a15.98172,15.98172,0,0,0,7.13965-3.90478l66.04638-62.5752A16.00063,16.00063,0,0,0,231.44043,203.03247Z"/><path class="cls-3" d="M197.70288,109.57227,109.20923,88.438a16.00016,16.00016,0,0,0-14.721,3.94751l-66.04639,62.575a15.97686,15.97686,0,0,0-4.26977,6.87793l95.06006,22.98047a16.00046,16.00046,0,0,0,14.80053-3.969l70.70435-67.55346A15.97328,15.97328,0,0,0,197.70288,109.57227Z"/><path class="cls-4" d="M481.22314,106.50464,416.09668,29.62109a15.99941,15.99941,0,0,0-14.59106-5.48L301.86914,39.14453A15.99979,15.99979,0,0,0,289.273,49.34082l-34.17676,90.99976a15.99947,15.99947,0,0,0,2.76978,15.967l65.12646,76.88379a16.0006,16.0006,0,0,0,14.59107,5.48L437.22,223.668a15.99946,15.99946,0,0,0,12.596-10.19629l34.177-90.99976A16,16,0,0,0,481.22314,106.50464Z"/><path class="cls-5" d="M364.48022,122.7251,295.65747,41.478a15.99064,15.99064,0,0,0-6.38452,7.86279l-34.17676,90.99976a15.99947,15.99947,0,0,0,2.76978,15.967l65.12646,76.88379a15.98686,15.98686,0,0,0,6.79492,4.70874L371.21924,127.415A15.987,15.987,0,0,1,364.48022,122.7251Z"/><path class="cls-6" d="M481.22314,106.50464,416.09668,29.62109a15.99941,15.99941,0,0,0-14.59106-5.48L301.86914,39.14453a15.97678,15.97678,0,0,0-6.21167,2.3335l68.82275,81.24707a15.999,15.999,0,0,0,14.59107,5.48l105.2915-15.85474A15.97582,15.97582,0,0,0,481.22314,106.50464Z"/><rect class="cls-5" height="135.99982" rx="16" width="88" x="399.99994" y="352.00008"/><rect class="cls-7" height="72" width="16" x="432" y="352"/><rect class="cls-7" height="24" width="16" x="432" y="440"/><rect class="cls-8" height="56" width="16" x="16" y="392"/><rect class="cls-8" height="40" width="16" x="48" y="432"/><rect class="cls-8" height="32" width="16" x="80" y="464"/><path class="cls-9" d="M219.34375,332.419a31.99954,31.99954,0,0,0-34.24854-15.8379l-17.10913,3.00123a31.93,31.93,0,0,1,11.22339,11.10034l33.88135,56.46875,33.55322-5.592Z"/><path class="cls-10" d="M179.20947,330.68262A32.00011,32.00011,0,0,0,146.509,315.58179l-24.82348,4.13745a31.95052,31.95052,0,0,1,10.3042,9.40869l44.73754,64.084,36.36353-6.06054Z"/><path class="cls-11" d="M124.32788,384.43726a32.00011,32.00011,0,0,0,30.86084,12.3645l21.53857-3.58985L176,392l-44.01025-62.87207a32.00032,32.00032,0,0,0-32.49121-13.02759l-23.00269,4.60059c.10474.13354.22021.2539.32251.39038Z"/><path class="cls-12" d="M400,376l-64-24-24.74512-55.67627A27.48691,27.48691,0,0,0,286.13672,280h0a27.48747,27.48747,0,0,0-26.07691,36.17969L280,376,155.18872,396.80176a32.00011,32.00011,0,0,1-30.86084-12.3645L76.81836,321.09131a23.68808,23.68808,0,0,0-31.13794-6.09961h0a23.74719,23.74719,0,0,0-7.28687,33.91821c17.37256,24.99561,45.23975,65.231,54.50171,78.606a15.99921,15.99921,0,0,0,8.30323,6.13818l167.45288,53.28052a15.99719,15.99719,0,0,0,6.83569.62939L400,472Z"/><rect class="cls-13" height="15.99989" transform="translate(206.81338 408.46495) rotate(-69.41694)" width="15.99989" x="390.26275" y="46.94146"/><rect class="cls-13" height="16.00024" transform="translate(153.78482 421.78983) rotate(-69.41367)" width="15.99989" x="373.3858" y="91.87635"/><rect class="cls-14" height="16.00024" transform="translate(76.38291 375.50645) rotate(-69.41367)" width="15.99989" x="301.27251" y="124.6117"/><rect class="cls-15" height="15.99989" transform="translate(56.67548 483.82003) rotate(-69.41694)" width="15.99989" x="369.5899" y="192.9981"/><rect class="cls-15" height="15.99989" transform="translate(96.46145 492.59802) rotate(-69.41694)" width="15.99989" x="395.81939" y="168.66705"/><rect class="cls-15" height="16.00024" transform="translate(138.45093 510.19349) rotate(-69.41367)" width="15.99989" x="429.53814" y="147.14783"/><rect class="cls-16" height="15.99926" transform="translate(-28.60114 33.05854) rotate(-15.01342)" width="16.0002" x="103.13808" y="117.05506"/><rect class="cls-16" height="15.99926" transform="translate(-36.32485 36.26057) rotate(-15.01342)" width="16.0002" x="111.42617" y="147.96326"/><rect class="cls-13" height="16.00024" transform="translate(171.39817 379.78275) rotate(-69.41367)" width="15.99989" x="351.86724" y="58.1576"/><rect class="cls-13" height="16.00024" transform="translate(189.18029 450.46076) rotate(-69.41367)" width="15.99989" x="411.7813" y="80.65955"/><rect class="cls-13" height="16.00024" transform="translate(180.28923 415.12176) rotate(-69.41367)" width="15.99989" x="381.82427" y="69.40857"/><rect class="cls-3" height="16.00114" transform="translate(-54.63817 30.27424) rotate(-15.01161)" width="15.99995" x="79.56887" y="214.48332"/><rect class="cls-3" height="15.99926" transform="translate(-46.63916 49.58801) rotate(-15.01342)" width="16.0002" x="156.83926" y="193.76404"/><rect class="cls-3" height="16.00114" transform="translate(-37.64072 54.90283) rotate(-15.01161)" width="15.99995" x="181.53079" y="162.29386"/><rect class="cls-3" height="15.99926" transform="translate(-54.36287 52.79005) rotate(-15.01342)" width="16.0002" x="165.12734" y="224.67225"/><rect class="cls-3" height="16.00114" transform="translate(-45.36355 58.10436) rotate(-15.01161)" width="15.99995" x="189.81887" y="193.20207"/><path d="M472,344H416a24.03471,24.03471,0,0,0-23.74854,20.55078l-50.30322-18.86426-23.38281-52.6123A35.51848,35.51848,0,0,0,286.13672,272a35.48794,35.48794,0,0,0-33.667,46.71l16.97973,50.9375-18.55371,3.09229-24.55884-44.20557a39.86662,39.86662,0,0,0-42.81152-19.79785l-13.59521,2.719a39.9144,39.9144,0,0,0-24.73682-3.76489l-22.1936,3.69873a39.95951,39.95951,0,0,0-25.071-3.1333l-18.60547,3.72119a31.73026,31.73026,0,0,0-47.499,41.49854c17.51367,25.19824,46.13867,66.52734,54.49316,78.59277a24.11142,24.11142,0,0,0,12.45508,9.209l167.45215,53.28028a24.144,24.144,0,0,0,7.30371,1.12793,23.81271,23.81271,0,0,0,2.95117-.18262l117.219-14.65283A24.03345,24.03345,0,0,0,416,496h56a24.0275,24.0275,0,0,0,24-24V368A24.0275,24.0275,0,0,0,472,344ZM186.66406,324.42578a23.92007,23.92007,0,0,1,25.68653,11.87793l21.79345,39.228-16.99536,2.83252-31.07837-51.79785c-.36719-.61182-.75317-1.20606-1.1477-1.79248Zm-38.83984-.95215a23.86036,23.86036,0,0,1,24.52539,11.3252l27.83545,46.39282-19.68872,3.28125-41.6521-59.50269Zm-46.75781.47168a24,24,0,0,1,24.36914,9.77051l37.5708,53.67212-9.1333,1.52222a23.90762,23.90762,0,0,1-23.14453-9.27246L90.53857,326.05078ZM392,464.9375,274.49512,479.626a7.93885,7.93885,0,0,1-3.418-.31446L103.624,426.03125a8.031,8.031,0,0,1-4.15136-3.07031c-8.35743-12.06934-36.98926-53.40821-54.50977-78.61621A15.723,15.723,0,0,1,70.418,325.89062l47.51074,63.34668a39.86,39.86,0,0,0,38.5752,15.45606l52.52929-8.75488.10645.17773.45093-.27051,66.62255-11.10376,29.13062,43.69556,13.3125-8.875L287.251,372.4541l-19.60157-58.80371A19.48787,19.48787,0,0,1,286.13672,288a19.50534,19.50534,0,0,1,17.80762,11.57227l26.10742,58.74121L392,381.54346ZM480,472a8.00917,8.00917,0,0,1-8,8H416a8.00917,8.00917,0,0,1-8-8V368a8.00917,8.00917,0,0,1,8-8h16v64h16V360h24a8.00917,8.00917,0,0,1,8,8Z"/><rect height="24" width="16" x="432" y="440"/><rect height="56" width="16" x="16" y="392"/><rect height="40" width="16" x="48" y="432"/><rect height="32" width="16" x="80" y="464"/><path d="M316.8877,238.3623a23.82548,23.82548,0,0,0,18.252,8.49317,24.4933,24.4933,0,0,0,3.63574-.27246l99.63477-15.00391a24.01958,24.01958,0,0,0,18.8955-15.29492l34.17676-90.999a24.0191,24.0191,0,0,0-4.15527-23.95118l-65.126-76.88378a23.858,23.858,0,0,0-21.88672-8.22071L300.67871,31.2334a24.01564,24.01564,0,0,0-18.89453,15.29492l-34.17773,91a24.01879,24.01879,0,0,0,4.15527,23.9502Zm125.43945-27.7041a8.00513,8.00513,0,0,1-6.29883,5.09864l-94.99023,14.30444,35.18481-93.68237c.134.00219.26685.01074.40112.01074a24.533,24.533,0,0,0,3.63868-.27344l95.459-14.374ZM402.69629,32.05176a8.07343,8.07343,0,0,1,1.21191-.09082,7.94184,7.94184,0,0,1,6.084,2.831l60.60058,71.54151L377.87988,120.294a7.93584,7.93584,0,0,1-7.29492-2.73926L309.98364,46.01318ZM262.585,143.15332l33.39526-88.91675L358.376,127.89648a24.39378,24.39378,0,0,0,2.86645,2.86255l-35.18262,93.67652L263.9707,151.13672A8.00726,8.00726,0,0,1,262.585,143.15332Z"/><rect height="15.99989" transform="translate(206.81338 408.46495) rotate(-69.41694)" width="15.99989" x="390.26275" y="46.94146"/><rect height="16.00024" transform="translate(153.78482 421.78983) rotate(-69.41367)" width="15.99989" x="373.3858" y="91.87635"/><rect height="16.00024" transform="translate(76.38291 375.50645) rotate(-69.41367)" width="15.99989" x="301.27251" y="124.6117"/><rect height="15.99989" transform="translate(56.67548 483.82003) rotate(-69.41694)" width="15.99989" x="369.5899" y="192.9981"/><rect height="15.99989" transform="translate(96.46145 492.59802) rotate(-69.41694)" width="15.99989" x="395.81939" y="168.66705"/><rect height="16.00024" transform="translate(138.45093 510.19349) rotate(-69.41367)" width="15.99989" x="429.53814" y="147.14783"/><path d="M38.26562,254.834a23.97624,23.97624,0,0,0,17.60547,17.127l88.49317,21.13476a23.94483,23.94483,0,0,0,22.082-5.9209l66.0459-62.57617a23.97852,23.97852,0,0,0,6.67578-23.63769l-22-82.042A23.97559,23.97559,0,0,0,199.56152,101.791L111.06738,80.65625a23.91693,23.91693,0,0,0-22.08105,5.92187l-66.04785,62.5752A23.97633,23.97633,0,0,0,16.26562,172.792ZM202.64014,126.51709l21.07373,78.5874a7.99265,7.99265,0,0,1-2.22559,7.87891L158.90088,272.283l-22.3252-83.25391a24.1598,24.1598,0,0,0,2.97608-2.38843ZM99.99023,98.19336a7.97905,7.97905,0,0,1,7.36036-1.97461l83.07177,19.8396L128.5127,175.05859a7.9598,7.9598,0,0,1-7.39942,1.98438l-83.12305-20.1084Zm17.36036,94.40039a24.23707,24.23707,0,0,0,3.77612.595l22.32056,83.23779L59.58691,256.39844a7.99427,7.99427,0,0,1-5.86816-5.709L32.64526,172.10229Z"/><rect height="15.99926" transform="matrix(0.96587, -0.25903, 0.25903, 0.96587, -28.59969, 33.05633)" width="16.0002" x="103.13808" y="117.05506"/><rect height="15.99926" transform="matrix(0.96587, -0.25903, 0.25903, 0.96587, -36.32296, 36.25811)" width="16.0002" x="111.42617" y="147.96326"/><rect height="16.00024" transform="translate(171.39817 379.78275) rotate(-69.41367)" width="15.99989" x="351.86724" y="58.1576"/><rect height="16.00024" transform="translate(189.18029 450.46076) rotate(-69.41367)" width="15.99989" x="411.7813" y="80.65955"/><rect height="16.00024" transform="translate(180.28923 415.12176) rotate(-69.41367)" width="15.99989" x="381.82427" y="69.40857"/><rect height="16.00114" transform="translate(-54.63817 30.27424) rotate(-15.01161)" width="15.99995" x="79.56887" y="214.48332"/><rect height="15.99926" transform="translate(-46.63916 49.58801) rotate(-15.01342)" width="16.0002" x="156.83926" y="193.76404"/><rect height="16.00114" transform="translate(-37.64072 54.90283) rotate(-15.01161)" width="15.99995" x="181.53079" y="162.29386"/><rect height="15.99926" transform="matrix(0.96587, -0.25903, 0.25903, 0.96587, -54.36002, 52.78645)" width="16.0002" x="165.12734" y="224.67225"/><rect height="16.00114" transform="matrix(0.96588, -0.25897, 0.25897, 0.96588, -45.35738, 58.09386)" width="15.99995" x="189.81887" y="193.20207"/></g></svg>