<?xml version="1.0" ?><!DOCTYPE svg  PUBLIC '-//W3C//DTD SVG 1.1//EN'  'http://www.w3.org/Graphics/SVG/1.1/DTD/svg11.dtd'><svg enable-background="new 0 0 128 128" id="Layer_1" version="1.1" viewBox="0 0 128 128" xml:space="preserve" xmlns="http://www.w3.org/2000/svg" xmlns:xlink="http://www.w3.org/1999/xlink"><g id="XMLID_33_"><circle cx="64" cy="64" fill="#1FB3E8" id="XMLID_3973_" r="64"/><g id="XMLID_864_"><path d="M76.6,49.2c-1.1,1.8-2.8,2.7-3.8,2c-1-0.7-0.9-2.7,0.3-4.5c1.1-1.8,2.8-2.7,3.8-2    C77.8,45.4,77.7,47.4,76.6,49.2z" fill="#F8CA46" id="XMLID_40_"/><path d="M42.5,49.2c1.1,1.8,2.8,2.7,3.8,2c1-0.7,0.9-2.7-0.3-4.5c-1.1-1.8-2.8-2.7-3.8-2    C41.2,45.4,41.3,47.4,42.5,49.2z" fill="#F8CA46" id="XMLID_39_"/><polygon fill="#F8CA46" id="XMLID_3937_" points="60,46.8 51.5,46.8 51.5,70 60,70 68.5,70 68.5,46.8   "/><path d="M75,40.7c0,12-6.9,23-15.5,23s-15.5-11-15.5-23s6.9-9.8,15.5-9.8S75,28.6,75,40.7z" fill="#FBD55D" id="XMLID_3923_"/><path d="M44.5,45.9c0,0,1.8-18.8,17.9-12.2c2,0.8,4,1.7,6.1,1.1c3.2-0.9,7.4-0.1,6,11    c0,0,1.5-5.8,2.7-8.1c1.6-3.1,0.5-13.4-6.4-12.8c0,0,2.3-6.8-14-5.8C56.8,19.2,33.2,20.6,44.5,45.9z" fill="#545E70" id="XMLID_3922_"/><polygon fill="#E6E7E9" id="XMLID_38_" points="68.5,63.6 60,66.2 51.5,63.6 48.6,67.2 60,97.4 71.4,67.2   "/><path d="M53.2,55.7h13.5C66.7,55.7,60,64.7,53.2,55.7z" fill="#FFFFFF" id="XMLID_3969_"/><ellipse cx="67.5" cy="45.6" fill="#545E70" id="XMLID_3968_" rx="1.3" ry="2.1"/><ellipse cx="53" cy="45.6" fill="#545E70" id="XMLID_3967_" rx="1.3" ry="2.1"/><path d="M70.2,41.7c-0.1,0-0.3-0.1-0.3-0.2c-1.3-2.4-3.3-2.2-3.3-2.2c-0.2,0-0.4-0.1-0.4-0.3    s0.1-0.4,0.3-0.4c0.1,0,2.6-0.2,4.1,2.6c0.1,0.2,0,0.4-0.2,0.5C70.3,41.7,70.2,41.7,70.2,41.7z" fill="#626C77" id="XMLID_3966_"/><path d="M49.9,41.7c0.1,0,0.3-0.1,0.3-0.2c1.3-2.4,3.3-2.2,3.3-2.2c0.2,0,0.4-0.1,0.4-0.3    c0-0.2-0.1-0.4-0.3-0.4c-0.1,0-2.6-0.2-4.1,2.6c-0.1,0.2,0,0.4,0.2,0.5C49.7,41.7,49.8,41.7,49.9,41.7z" fill="#626C77" id="XMLID_3964_"/><polygon fill="#F04D45" id="XMLID_1860_" points="60,66.2 54.3,87.3 60,97.4 65.7,87.3   "/><path d="M71.4,67.2l-5.9,30.2H54.6l-5.9-30.2c0,0-21.3-2.2-22.8,19.1v6.4c0,2.6,2.1,4.7,4.7,4.7h59    c2.6,0,4.7-2.1,4.7-4.7v-6.4C92.7,65,71.4,67.2,71.4,67.2z" fill="#545E70" id="XMLID_37_"/><polygon fill="#626C77" id="XMLID_868_" points="48.6,67.2 44.2,76 54.6,97.4 60,97.4   "/><polygon fill="#626C77" id="XMLID_36_" points="71.4,67.2 75.8,76 65.5,97.4 60,97.4   "/><polygon fill="#F39C23" id="XMLID_2281_" points="99.5,93.5 86.7,81.2 80.9,84.4 94,97.1 94,97.1   "/><path d="M72.5,82.5L72.5,82.5c2,3.1,6.1,4,9.2,2l5-3.3L79.5,70l-5,3.3    C71.3,75.3,70.5,79.4,72.5,82.5z" fill="#F8CA46" id="XMLID_2287_"/><path d="M93.2,47.9l-1,4.3c-1.8,7.4-6.4,13.7-12.7,17.8l0,0l7.3,11.2c6.3-4.2,14-5.8,21.4-4.4    l4.3,0.8L93.2,47.9z" fill="#E6E7E9" id="XMLID_2060_"/><ellipse cx="102.9" cy="62.7" fill="#F8CA46" id="XMLID_1234_" rx="4.7" ry="17.7" transform="matrix(0.8386 -0.5448 0.5448 0.8386 -17.5708 66.1813)"/><path d="M103.8,62.2c-1.7-2.6-5.1-3.4-7.7-1.8c0.8,1.6,1.8,3.3,2.9,5c1.1,1.7,2.2,3.2,3.3,4.7    C104.8,68.2,105.4,64.8,103.8,62.2z" fill="#626C77" id="XMLID_3881_"/></g></g></svg>