<?xml version="1.0" ?><svg viewBox="0 0 60 60" xmlns="http://www.w3.org/2000/svg"><defs><style>.cls-1{fill:#ced2dc;}.cls-2{fill:#2885ee;}.cls-3{fill:#f289ca;}.cls-4{fill:#abde62;}.cls-5{fill:#ffcd54;}.cls-6{fill:#fff;}.cls-7{fill:#8b93a2;}.cls-8{fill:#ff6e50;}</style></defs><title/><g data-name="icons" id="icons-2"><path class="cls-1" d="M59,9V56a3,3,0,0,1-3,3H4a3,3,0,0,1-3-3V9L2,7H57Z"/><path class="cls-2" d="M59,4V9H1V4A3,3,0,0,1,4,1H56A3,3,0,0,1,59,4Z"/><path class="cls-3" d="M6,6H5A1,1,0,0,1,5,4H6A1,1,0,0,1,6,6Z"/><path class="cls-4" d="M11,6H10a1,1,0,0,1,0-2h1a1,1,0,0,1,0,2Z"/><path class="cls-5" d="M16,6H15a1,1,0,0,1,0-2h1a1,1,0,0,1,0,2Z"/><path class="cls-6" d="M55,6H41a1,1,0,0,1,0-2H55a1,1,0,0,1,0,2Z"/><path class="cls-7" d="M30,41H6a1,1,0,0,1,0-2H30a1,1,0,0,1,0,2Z"/><path class="cls-7" d="M30,45H12a1,1,0,0,1,0-2H30a1,1,0,0,1,0,2Z"/><path class="cls-7" d="M8,45H6a1,1,0,0,1,0-2H8a1,1,0,0,1,0,2Z"/><path class="cls-7" d="M30,49H28a1,1,0,0,1,0-2h2a1,1,0,0,1,0,2Z"/><path class="cls-7" d="M24,49H6a1,1,0,0,1,0-2H24a1,1,0,0,1,0,2Z"/><path class="cls-7" d="M30,53H6a1,1,0,0,1,0-2H30a1,1,0,0,1,0,2Z"/><path class="cls-7" d="M54,41H36a1,1,0,0,1,0-2H54a1,1,0,0,1,0,2Z"/><path class="cls-7" d="M54,45H42a1,1,0,0,1,0-2H54a1,1,0,0,1,0,2Z"/><path class="cls-7" d="M38,45H36a1,1,0,0,1,0-2h2a1,1,0,0,1,0,2Z"/><path class="cls-7" d="M54,49H52a1,1,0,0,1,0-2h2a1,1,0,0,1,0,2Z"/><path class="cls-7" d="M48,49H36a1,1,0,0,1,0-2H48a1,1,0,0,1,0,2Z"/><path class="cls-7" d="M54,53H36a1,1,0,0,1,0-2H54a1,1,0,0,1,0,2Z"/><path class="cls-8" d="M29,13H7a3,3,0,0,0-3,3V34a3,3,0,0,0,3,3H29a3,3,0,0,0,3-3V16A3,3,0,0,0,29,13ZM6,16.155,16.452,25,6,33.845ZM7.731,15H28.269L18,23.69ZM18,26.31,28.269,35H7.731ZM19.548,25,30,16.155v17.69Z"/><path class="cls-8" d="M53,13H37a3,3,0,0,0-3,3V34a3,3,0,0,0,3,3H53a3,3,0,0,0,3-3V16A3,3,0,0,0,53,13ZM36,16.591,43.648,25,36,33.409ZM37.257,15H52.743L45,23.513ZM45,26.487,52.743,35H37.257ZM46.352,25,54,16.591V33.409Z"/></g></svg>